G75*
%MOIN*%
%OFA0B0*%
%FSLAX25Y25*%
%IPPOS*%
%LPD*%
%AMOC8*
5,1,8,0,0,1.08239X$1,22.5*
%
%ADD10C,0.00000*%
%ADD11C,0.01388*%
%ADD12C,0.06896*%
%ADD13C,0.05124*%
%ADD14C,0.07000*%
%ADD15C,0.23400*%
%ADD16R,0.07400X0.07400*%
%ADD17C,0.07400*%
%ADD18C,0.04829*%
%ADD19C,0.00994*%
%ADD20C,0.08274*%
%ADD21C,0.01158*%
%ADD22C,0.01009*%
%ADD23R,0.09849X0.05124*%
%ADD24C,0.00749*%
%ADD25R,0.02762X0.03550*%
D10*
X0024622Y0040620D02*
X0445882Y0040620D01*
X0446215Y0040624D01*
X0446548Y0040636D01*
X0446880Y0040656D01*
X0447212Y0040684D01*
X0447543Y0040720D01*
X0447873Y0040765D01*
X0448202Y0040817D01*
X0448530Y0040877D01*
X0448856Y0040945D01*
X0449180Y0041020D01*
X0449502Y0041104D01*
X0449822Y0041195D01*
X0450140Y0041294D01*
X0450456Y0041401D01*
X0450768Y0041515D01*
X0451078Y0041637D01*
X0451385Y0041767D01*
X0451689Y0041903D01*
X0451989Y0042047D01*
X0452286Y0042198D01*
X0452579Y0042357D01*
X0452868Y0042522D01*
X0453153Y0042694D01*
X0453434Y0042873D01*
X0453710Y0043059D01*
X0453982Y0043252D01*
X0454249Y0043451D01*
X0454511Y0043656D01*
X0454768Y0043868D01*
X0455020Y0044086D01*
X0455266Y0044309D01*
X0455507Y0044539D01*
X0455743Y0044775D01*
X0455973Y0045016D01*
X0456196Y0045262D01*
X0456414Y0045514D01*
X0456626Y0045771D01*
X0456831Y0046033D01*
X0457030Y0046300D01*
X0457223Y0046572D01*
X0457409Y0046848D01*
X0457588Y0047129D01*
X0457760Y0047414D01*
X0457925Y0047703D01*
X0458084Y0047996D01*
X0458235Y0048293D01*
X0458379Y0048593D01*
X0458515Y0048897D01*
X0458645Y0049204D01*
X0458767Y0049514D01*
X0458881Y0049826D01*
X0458988Y0050142D01*
X0459087Y0050460D01*
X0459178Y0050780D01*
X0459262Y0051102D01*
X0459337Y0051426D01*
X0459405Y0051752D01*
X0459465Y0052080D01*
X0459517Y0052409D01*
X0459562Y0052739D01*
X0459598Y0053070D01*
X0459626Y0053402D01*
X0459646Y0053734D01*
X0459658Y0054067D01*
X0459662Y0054400D01*
X0459661Y0054400D02*
X0459661Y0270935D01*
X0459662Y0270935D02*
X0459658Y0271268D01*
X0459646Y0271601D01*
X0459626Y0271933D01*
X0459598Y0272265D01*
X0459562Y0272596D01*
X0459517Y0272926D01*
X0459465Y0273255D01*
X0459405Y0273583D01*
X0459337Y0273909D01*
X0459262Y0274233D01*
X0459178Y0274555D01*
X0459087Y0274875D01*
X0458988Y0275193D01*
X0458881Y0275509D01*
X0458767Y0275821D01*
X0458645Y0276131D01*
X0458515Y0276438D01*
X0458379Y0276742D01*
X0458235Y0277042D01*
X0458084Y0277339D01*
X0457925Y0277632D01*
X0457760Y0277921D01*
X0457588Y0278206D01*
X0457409Y0278487D01*
X0457223Y0278763D01*
X0457030Y0279035D01*
X0456831Y0279302D01*
X0456626Y0279564D01*
X0456414Y0279821D01*
X0456196Y0280073D01*
X0455973Y0280319D01*
X0455743Y0280560D01*
X0455507Y0280796D01*
X0455266Y0281026D01*
X0455020Y0281249D01*
X0454768Y0281467D01*
X0454511Y0281679D01*
X0454249Y0281884D01*
X0453982Y0282083D01*
X0453710Y0282276D01*
X0453434Y0282462D01*
X0453153Y0282641D01*
X0452868Y0282813D01*
X0452579Y0282978D01*
X0452286Y0283137D01*
X0451989Y0283288D01*
X0451689Y0283432D01*
X0451385Y0283568D01*
X0451078Y0283698D01*
X0450768Y0283820D01*
X0450456Y0283934D01*
X0450140Y0284041D01*
X0449822Y0284140D01*
X0449502Y0284231D01*
X0449180Y0284315D01*
X0448856Y0284390D01*
X0448530Y0284458D01*
X0448202Y0284518D01*
X0447873Y0284570D01*
X0447543Y0284615D01*
X0447212Y0284651D01*
X0446880Y0284679D01*
X0446548Y0284699D01*
X0446215Y0284711D01*
X0445882Y0284715D01*
X0024622Y0284715D01*
X0024289Y0284711D01*
X0023956Y0284699D01*
X0023624Y0284679D01*
X0023292Y0284651D01*
X0022961Y0284615D01*
X0022631Y0284570D01*
X0022302Y0284518D01*
X0021974Y0284458D01*
X0021648Y0284390D01*
X0021324Y0284315D01*
X0021002Y0284231D01*
X0020682Y0284140D01*
X0020364Y0284041D01*
X0020048Y0283934D01*
X0019736Y0283820D01*
X0019426Y0283698D01*
X0019119Y0283568D01*
X0018815Y0283432D01*
X0018515Y0283288D01*
X0018218Y0283137D01*
X0017925Y0282978D01*
X0017636Y0282813D01*
X0017351Y0282641D01*
X0017070Y0282462D01*
X0016794Y0282276D01*
X0016522Y0282083D01*
X0016255Y0281884D01*
X0015993Y0281679D01*
X0015736Y0281467D01*
X0015484Y0281249D01*
X0015238Y0281026D01*
X0014997Y0280796D01*
X0014761Y0280560D01*
X0014531Y0280319D01*
X0014308Y0280073D01*
X0014090Y0279821D01*
X0013878Y0279564D01*
X0013673Y0279302D01*
X0013474Y0279035D01*
X0013281Y0278763D01*
X0013095Y0278487D01*
X0012916Y0278206D01*
X0012744Y0277921D01*
X0012579Y0277632D01*
X0012420Y0277339D01*
X0012269Y0277042D01*
X0012125Y0276742D01*
X0011989Y0276438D01*
X0011859Y0276131D01*
X0011737Y0275821D01*
X0011623Y0275509D01*
X0011516Y0275193D01*
X0011417Y0274875D01*
X0011326Y0274555D01*
X0011242Y0274233D01*
X0011167Y0273909D01*
X0011099Y0273583D01*
X0011039Y0273255D01*
X0010987Y0272926D01*
X0010942Y0272596D01*
X0010906Y0272265D01*
X0010878Y0271933D01*
X0010858Y0271601D01*
X0010846Y0271268D01*
X0010842Y0270935D01*
X0010843Y0270935D02*
X0010843Y0054400D01*
X0010842Y0054400D02*
X0010846Y0054067D01*
X0010858Y0053734D01*
X0010878Y0053402D01*
X0010906Y0053070D01*
X0010942Y0052739D01*
X0010987Y0052409D01*
X0011039Y0052080D01*
X0011099Y0051752D01*
X0011167Y0051426D01*
X0011242Y0051102D01*
X0011326Y0050780D01*
X0011417Y0050460D01*
X0011516Y0050142D01*
X0011623Y0049826D01*
X0011737Y0049514D01*
X0011859Y0049204D01*
X0011989Y0048897D01*
X0012125Y0048593D01*
X0012269Y0048293D01*
X0012420Y0047996D01*
X0012579Y0047703D01*
X0012744Y0047414D01*
X0012916Y0047129D01*
X0013095Y0046848D01*
X0013281Y0046572D01*
X0013474Y0046300D01*
X0013673Y0046033D01*
X0013878Y0045771D01*
X0014090Y0045514D01*
X0014308Y0045262D01*
X0014531Y0045016D01*
X0014761Y0044775D01*
X0014997Y0044539D01*
X0015238Y0044309D01*
X0015484Y0044086D01*
X0015736Y0043868D01*
X0015993Y0043656D01*
X0016255Y0043451D01*
X0016522Y0043252D01*
X0016794Y0043059D01*
X0017070Y0042873D01*
X0017351Y0042694D01*
X0017636Y0042522D01*
X0017925Y0042357D01*
X0018218Y0042198D01*
X0018515Y0042047D01*
X0018815Y0041903D01*
X0019119Y0041767D01*
X0019426Y0041637D01*
X0019736Y0041515D01*
X0020048Y0041401D01*
X0020364Y0041294D01*
X0020682Y0041195D01*
X0021002Y0041104D01*
X0021324Y0041020D01*
X0021648Y0040945D01*
X0021974Y0040877D01*
X0022302Y0040817D01*
X0022631Y0040765D01*
X0022961Y0040720D01*
X0023292Y0040684D01*
X0023624Y0040656D01*
X0023956Y0040636D01*
X0024289Y0040624D01*
X0024622Y0040620D01*
X0073441Y0247313D02*
X0073443Y0247410D01*
X0073449Y0247507D01*
X0073459Y0247603D01*
X0073473Y0247699D01*
X0073491Y0247795D01*
X0073512Y0247889D01*
X0073538Y0247983D01*
X0073567Y0248075D01*
X0073601Y0248166D01*
X0073637Y0248256D01*
X0073678Y0248344D01*
X0073722Y0248430D01*
X0073770Y0248515D01*
X0073821Y0248597D01*
X0073875Y0248678D01*
X0073933Y0248756D01*
X0073994Y0248831D01*
X0074057Y0248904D01*
X0074124Y0248975D01*
X0074194Y0249042D01*
X0074266Y0249107D01*
X0074341Y0249168D01*
X0074419Y0249227D01*
X0074498Y0249282D01*
X0074580Y0249334D01*
X0074664Y0249382D01*
X0074750Y0249427D01*
X0074838Y0249469D01*
X0074927Y0249507D01*
X0075018Y0249541D01*
X0075110Y0249571D01*
X0075203Y0249598D01*
X0075298Y0249620D01*
X0075393Y0249639D01*
X0075489Y0249654D01*
X0075585Y0249665D01*
X0075682Y0249672D01*
X0075779Y0249675D01*
X0075876Y0249674D01*
X0075973Y0249669D01*
X0076069Y0249660D01*
X0076165Y0249647D01*
X0076261Y0249630D01*
X0076356Y0249609D01*
X0076449Y0249585D01*
X0076542Y0249556D01*
X0076634Y0249524D01*
X0076724Y0249488D01*
X0076812Y0249449D01*
X0076899Y0249405D01*
X0076984Y0249359D01*
X0077067Y0249308D01*
X0077148Y0249255D01*
X0077226Y0249198D01*
X0077303Y0249138D01*
X0077376Y0249075D01*
X0077447Y0249009D01*
X0077515Y0248940D01*
X0077581Y0248868D01*
X0077643Y0248794D01*
X0077702Y0248717D01*
X0077758Y0248638D01*
X0077811Y0248556D01*
X0077861Y0248473D01*
X0077906Y0248387D01*
X0077949Y0248300D01*
X0077988Y0248211D01*
X0078023Y0248121D01*
X0078054Y0248029D01*
X0078081Y0247936D01*
X0078105Y0247842D01*
X0078125Y0247747D01*
X0078141Y0247651D01*
X0078153Y0247555D01*
X0078161Y0247458D01*
X0078165Y0247361D01*
X0078165Y0247265D01*
X0078161Y0247168D01*
X0078153Y0247071D01*
X0078141Y0246975D01*
X0078125Y0246879D01*
X0078105Y0246784D01*
X0078081Y0246690D01*
X0078054Y0246597D01*
X0078023Y0246505D01*
X0077988Y0246415D01*
X0077949Y0246326D01*
X0077906Y0246239D01*
X0077861Y0246153D01*
X0077811Y0246070D01*
X0077758Y0245988D01*
X0077702Y0245909D01*
X0077643Y0245832D01*
X0077581Y0245758D01*
X0077515Y0245686D01*
X0077447Y0245617D01*
X0077376Y0245551D01*
X0077303Y0245488D01*
X0077226Y0245428D01*
X0077148Y0245371D01*
X0077067Y0245318D01*
X0076984Y0245267D01*
X0076899Y0245221D01*
X0076812Y0245177D01*
X0076724Y0245138D01*
X0076634Y0245102D01*
X0076542Y0245070D01*
X0076449Y0245041D01*
X0076356Y0245017D01*
X0076261Y0244996D01*
X0076165Y0244979D01*
X0076069Y0244966D01*
X0075973Y0244957D01*
X0075876Y0244952D01*
X0075779Y0244951D01*
X0075682Y0244954D01*
X0075585Y0244961D01*
X0075489Y0244972D01*
X0075393Y0244987D01*
X0075298Y0245006D01*
X0075203Y0245028D01*
X0075110Y0245055D01*
X0075018Y0245085D01*
X0074927Y0245119D01*
X0074838Y0245157D01*
X0074750Y0245199D01*
X0074664Y0245244D01*
X0074580Y0245292D01*
X0074498Y0245344D01*
X0074419Y0245399D01*
X0074341Y0245458D01*
X0074266Y0245519D01*
X0074194Y0245584D01*
X0074124Y0245651D01*
X0074057Y0245722D01*
X0073994Y0245795D01*
X0073933Y0245870D01*
X0073875Y0245948D01*
X0073821Y0246029D01*
X0073770Y0246111D01*
X0073722Y0246196D01*
X0073678Y0246282D01*
X0073637Y0246370D01*
X0073601Y0246460D01*
X0073567Y0246551D01*
X0073538Y0246643D01*
X0073512Y0246737D01*
X0073491Y0246831D01*
X0073473Y0246927D01*
X0073459Y0247023D01*
X0073449Y0247119D01*
X0073443Y0247216D01*
X0073441Y0247313D01*
X0053756Y0266998D02*
X0053758Y0267095D01*
X0053764Y0267192D01*
X0053774Y0267288D01*
X0053788Y0267384D01*
X0053806Y0267480D01*
X0053827Y0267574D01*
X0053853Y0267668D01*
X0053882Y0267760D01*
X0053916Y0267851D01*
X0053952Y0267941D01*
X0053993Y0268029D01*
X0054037Y0268115D01*
X0054085Y0268200D01*
X0054136Y0268282D01*
X0054190Y0268363D01*
X0054248Y0268441D01*
X0054309Y0268516D01*
X0054372Y0268589D01*
X0054439Y0268660D01*
X0054509Y0268727D01*
X0054581Y0268792D01*
X0054656Y0268853D01*
X0054734Y0268912D01*
X0054813Y0268967D01*
X0054895Y0269019D01*
X0054979Y0269067D01*
X0055065Y0269112D01*
X0055153Y0269154D01*
X0055242Y0269192D01*
X0055333Y0269226D01*
X0055425Y0269256D01*
X0055518Y0269283D01*
X0055613Y0269305D01*
X0055708Y0269324D01*
X0055804Y0269339D01*
X0055900Y0269350D01*
X0055997Y0269357D01*
X0056094Y0269360D01*
X0056191Y0269359D01*
X0056288Y0269354D01*
X0056384Y0269345D01*
X0056480Y0269332D01*
X0056576Y0269315D01*
X0056671Y0269294D01*
X0056764Y0269270D01*
X0056857Y0269241D01*
X0056949Y0269209D01*
X0057039Y0269173D01*
X0057127Y0269134D01*
X0057214Y0269090D01*
X0057299Y0269044D01*
X0057382Y0268993D01*
X0057463Y0268940D01*
X0057541Y0268883D01*
X0057618Y0268823D01*
X0057691Y0268760D01*
X0057762Y0268694D01*
X0057830Y0268625D01*
X0057896Y0268553D01*
X0057958Y0268479D01*
X0058017Y0268402D01*
X0058073Y0268323D01*
X0058126Y0268241D01*
X0058176Y0268158D01*
X0058221Y0268072D01*
X0058264Y0267985D01*
X0058303Y0267896D01*
X0058338Y0267806D01*
X0058369Y0267714D01*
X0058396Y0267621D01*
X0058420Y0267527D01*
X0058440Y0267432D01*
X0058456Y0267336D01*
X0058468Y0267240D01*
X0058476Y0267143D01*
X0058480Y0267046D01*
X0058480Y0266950D01*
X0058476Y0266853D01*
X0058468Y0266756D01*
X0058456Y0266660D01*
X0058440Y0266564D01*
X0058420Y0266469D01*
X0058396Y0266375D01*
X0058369Y0266282D01*
X0058338Y0266190D01*
X0058303Y0266100D01*
X0058264Y0266011D01*
X0058221Y0265924D01*
X0058176Y0265838D01*
X0058126Y0265755D01*
X0058073Y0265673D01*
X0058017Y0265594D01*
X0057958Y0265517D01*
X0057896Y0265443D01*
X0057830Y0265371D01*
X0057762Y0265302D01*
X0057691Y0265236D01*
X0057618Y0265173D01*
X0057541Y0265113D01*
X0057463Y0265056D01*
X0057382Y0265003D01*
X0057299Y0264952D01*
X0057214Y0264906D01*
X0057127Y0264862D01*
X0057039Y0264823D01*
X0056949Y0264787D01*
X0056857Y0264755D01*
X0056764Y0264726D01*
X0056671Y0264702D01*
X0056576Y0264681D01*
X0056480Y0264664D01*
X0056384Y0264651D01*
X0056288Y0264642D01*
X0056191Y0264637D01*
X0056094Y0264636D01*
X0055997Y0264639D01*
X0055900Y0264646D01*
X0055804Y0264657D01*
X0055708Y0264672D01*
X0055613Y0264691D01*
X0055518Y0264713D01*
X0055425Y0264740D01*
X0055333Y0264770D01*
X0055242Y0264804D01*
X0055153Y0264842D01*
X0055065Y0264884D01*
X0054979Y0264929D01*
X0054895Y0264977D01*
X0054813Y0265029D01*
X0054734Y0265084D01*
X0054656Y0265143D01*
X0054581Y0265204D01*
X0054509Y0265269D01*
X0054439Y0265336D01*
X0054372Y0265407D01*
X0054309Y0265480D01*
X0054248Y0265555D01*
X0054190Y0265633D01*
X0054136Y0265714D01*
X0054085Y0265796D01*
X0054037Y0265881D01*
X0053993Y0265967D01*
X0053952Y0266055D01*
X0053916Y0266145D01*
X0053882Y0266236D01*
X0053853Y0266328D01*
X0053827Y0266422D01*
X0053806Y0266516D01*
X0053788Y0266612D01*
X0053774Y0266708D01*
X0053764Y0266804D01*
X0053758Y0266901D01*
X0053756Y0266998D01*
X0053756Y0276841D02*
X0053758Y0276938D01*
X0053764Y0277035D01*
X0053774Y0277131D01*
X0053788Y0277227D01*
X0053806Y0277323D01*
X0053827Y0277417D01*
X0053853Y0277511D01*
X0053882Y0277603D01*
X0053916Y0277694D01*
X0053952Y0277784D01*
X0053993Y0277872D01*
X0054037Y0277958D01*
X0054085Y0278043D01*
X0054136Y0278125D01*
X0054190Y0278206D01*
X0054248Y0278284D01*
X0054309Y0278359D01*
X0054372Y0278432D01*
X0054439Y0278503D01*
X0054509Y0278570D01*
X0054581Y0278635D01*
X0054656Y0278696D01*
X0054734Y0278755D01*
X0054813Y0278810D01*
X0054895Y0278862D01*
X0054979Y0278910D01*
X0055065Y0278955D01*
X0055153Y0278997D01*
X0055242Y0279035D01*
X0055333Y0279069D01*
X0055425Y0279099D01*
X0055518Y0279126D01*
X0055613Y0279148D01*
X0055708Y0279167D01*
X0055804Y0279182D01*
X0055900Y0279193D01*
X0055997Y0279200D01*
X0056094Y0279203D01*
X0056191Y0279202D01*
X0056288Y0279197D01*
X0056384Y0279188D01*
X0056480Y0279175D01*
X0056576Y0279158D01*
X0056671Y0279137D01*
X0056764Y0279113D01*
X0056857Y0279084D01*
X0056949Y0279052D01*
X0057039Y0279016D01*
X0057127Y0278977D01*
X0057214Y0278933D01*
X0057299Y0278887D01*
X0057382Y0278836D01*
X0057463Y0278783D01*
X0057541Y0278726D01*
X0057618Y0278666D01*
X0057691Y0278603D01*
X0057762Y0278537D01*
X0057830Y0278468D01*
X0057896Y0278396D01*
X0057958Y0278322D01*
X0058017Y0278245D01*
X0058073Y0278166D01*
X0058126Y0278084D01*
X0058176Y0278001D01*
X0058221Y0277915D01*
X0058264Y0277828D01*
X0058303Y0277739D01*
X0058338Y0277649D01*
X0058369Y0277557D01*
X0058396Y0277464D01*
X0058420Y0277370D01*
X0058440Y0277275D01*
X0058456Y0277179D01*
X0058468Y0277083D01*
X0058476Y0276986D01*
X0058480Y0276889D01*
X0058480Y0276793D01*
X0058476Y0276696D01*
X0058468Y0276599D01*
X0058456Y0276503D01*
X0058440Y0276407D01*
X0058420Y0276312D01*
X0058396Y0276218D01*
X0058369Y0276125D01*
X0058338Y0276033D01*
X0058303Y0275943D01*
X0058264Y0275854D01*
X0058221Y0275767D01*
X0058176Y0275681D01*
X0058126Y0275598D01*
X0058073Y0275516D01*
X0058017Y0275437D01*
X0057958Y0275360D01*
X0057896Y0275286D01*
X0057830Y0275214D01*
X0057762Y0275145D01*
X0057691Y0275079D01*
X0057618Y0275016D01*
X0057541Y0274956D01*
X0057463Y0274899D01*
X0057382Y0274846D01*
X0057299Y0274795D01*
X0057214Y0274749D01*
X0057127Y0274705D01*
X0057039Y0274666D01*
X0056949Y0274630D01*
X0056857Y0274598D01*
X0056764Y0274569D01*
X0056671Y0274545D01*
X0056576Y0274524D01*
X0056480Y0274507D01*
X0056384Y0274494D01*
X0056288Y0274485D01*
X0056191Y0274480D01*
X0056094Y0274479D01*
X0055997Y0274482D01*
X0055900Y0274489D01*
X0055804Y0274500D01*
X0055708Y0274515D01*
X0055613Y0274534D01*
X0055518Y0274556D01*
X0055425Y0274583D01*
X0055333Y0274613D01*
X0055242Y0274647D01*
X0055153Y0274685D01*
X0055065Y0274727D01*
X0054979Y0274772D01*
X0054895Y0274820D01*
X0054813Y0274872D01*
X0054734Y0274927D01*
X0054656Y0274986D01*
X0054581Y0275047D01*
X0054509Y0275112D01*
X0054439Y0275179D01*
X0054372Y0275250D01*
X0054309Y0275323D01*
X0054248Y0275398D01*
X0054190Y0275476D01*
X0054136Y0275557D01*
X0054085Y0275639D01*
X0054037Y0275724D01*
X0053993Y0275810D01*
X0053952Y0275898D01*
X0053916Y0275988D01*
X0053882Y0276079D01*
X0053853Y0276171D01*
X0053827Y0276265D01*
X0053806Y0276359D01*
X0053788Y0276455D01*
X0053774Y0276551D01*
X0053764Y0276647D01*
X0053758Y0276744D01*
X0053756Y0276841D01*
X0093126Y0276841D02*
X0093128Y0276938D01*
X0093134Y0277035D01*
X0093144Y0277131D01*
X0093158Y0277227D01*
X0093176Y0277323D01*
X0093197Y0277417D01*
X0093223Y0277511D01*
X0093252Y0277603D01*
X0093286Y0277694D01*
X0093322Y0277784D01*
X0093363Y0277872D01*
X0093407Y0277958D01*
X0093455Y0278043D01*
X0093506Y0278125D01*
X0093560Y0278206D01*
X0093618Y0278284D01*
X0093679Y0278359D01*
X0093742Y0278432D01*
X0093809Y0278503D01*
X0093879Y0278570D01*
X0093951Y0278635D01*
X0094026Y0278696D01*
X0094104Y0278755D01*
X0094183Y0278810D01*
X0094265Y0278862D01*
X0094349Y0278910D01*
X0094435Y0278955D01*
X0094523Y0278997D01*
X0094612Y0279035D01*
X0094703Y0279069D01*
X0094795Y0279099D01*
X0094888Y0279126D01*
X0094983Y0279148D01*
X0095078Y0279167D01*
X0095174Y0279182D01*
X0095270Y0279193D01*
X0095367Y0279200D01*
X0095464Y0279203D01*
X0095561Y0279202D01*
X0095658Y0279197D01*
X0095754Y0279188D01*
X0095850Y0279175D01*
X0095946Y0279158D01*
X0096041Y0279137D01*
X0096134Y0279113D01*
X0096227Y0279084D01*
X0096319Y0279052D01*
X0096409Y0279016D01*
X0096497Y0278977D01*
X0096584Y0278933D01*
X0096669Y0278887D01*
X0096752Y0278836D01*
X0096833Y0278783D01*
X0096911Y0278726D01*
X0096988Y0278666D01*
X0097061Y0278603D01*
X0097132Y0278537D01*
X0097200Y0278468D01*
X0097266Y0278396D01*
X0097328Y0278322D01*
X0097387Y0278245D01*
X0097443Y0278166D01*
X0097496Y0278084D01*
X0097546Y0278001D01*
X0097591Y0277915D01*
X0097634Y0277828D01*
X0097673Y0277739D01*
X0097708Y0277649D01*
X0097739Y0277557D01*
X0097766Y0277464D01*
X0097790Y0277370D01*
X0097810Y0277275D01*
X0097826Y0277179D01*
X0097838Y0277083D01*
X0097846Y0276986D01*
X0097850Y0276889D01*
X0097850Y0276793D01*
X0097846Y0276696D01*
X0097838Y0276599D01*
X0097826Y0276503D01*
X0097810Y0276407D01*
X0097790Y0276312D01*
X0097766Y0276218D01*
X0097739Y0276125D01*
X0097708Y0276033D01*
X0097673Y0275943D01*
X0097634Y0275854D01*
X0097591Y0275767D01*
X0097546Y0275681D01*
X0097496Y0275598D01*
X0097443Y0275516D01*
X0097387Y0275437D01*
X0097328Y0275360D01*
X0097266Y0275286D01*
X0097200Y0275214D01*
X0097132Y0275145D01*
X0097061Y0275079D01*
X0096988Y0275016D01*
X0096911Y0274956D01*
X0096833Y0274899D01*
X0096752Y0274846D01*
X0096669Y0274795D01*
X0096584Y0274749D01*
X0096497Y0274705D01*
X0096409Y0274666D01*
X0096319Y0274630D01*
X0096227Y0274598D01*
X0096134Y0274569D01*
X0096041Y0274545D01*
X0095946Y0274524D01*
X0095850Y0274507D01*
X0095754Y0274494D01*
X0095658Y0274485D01*
X0095561Y0274480D01*
X0095464Y0274479D01*
X0095367Y0274482D01*
X0095270Y0274489D01*
X0095174Y0274500D01*
X0095078Y0274515D01*
X0094983Y0274534D01*
X0094888Y0274556D01*
X0094795Y0274583D01*
X0094703Y0274613D01*
X0094612Y0274647D01*
X0094523Y0274685D01*
X0094435Y0274727D01*
X0094349Y0274772D01*
X0094265Y0274820D01*
X0094183Y0274872D01*
X0094104Y0274927D01*
X0094026Y0274986D01*
X0093951Y0275047D01*
X0093879Y0275112D01*
X0093809Y0275179D01*
X0093742Y0275250D01*
X0093679Y0275323D01*
X0093618Y0275398D01*
X0093560Y0275476D01*
X0093506Y0275557D01*
X0093455Y0275639D01*
X0093407Y0275724D01*
X0093363Y0275810D01*
X0093322Y0275898D01*
X0093286Y0275988D01*
X0093252Y0276079D01*
X0093223Y0276171D01*
X0093197Y0276265D01*
X0093176Y0276359D01*
X0093158Y0276455D01*
X0093144Y0276551D01*
X0093134Y0276647D01*
X0093128Y0276744D01*
X0093126Y0276841D01*
X0093126Y0266998D02*
X0093128Y0267095D01*
X0093134Y0267192D01*
X0093144Y0267288D01*
X0093158Y0267384D01*
X0093176Y0267480D01*
X0093197Y0267574D01*
X0093223Y0267668D01*
X0093252Y0267760D01*
X0093286Y0267851D01*
X0093322Y0267941D01*
X0093363Y0268029D01*
X0093407Y0268115D01*
X0093455Y0268200D01*
X0093506Y0268282D01*
X0093560Y0268363D01*
X0093618Y0268441D01*
X0093679Y0268516D01*
X0093742Y0268589D01*
X0093809Y0268660D01*
X0093879Y0268727D01*
X0093951Y0268792D01*
X0094026Y0268853D01*
X0094104Y0268912D01*
X0094183Y0268967D01*
X0094265Y0269019D01*
X0094349Y0269067D01*
X0094435Y0269112D01*
X0094523Y0269154D01*
X0094612Y0269192D01*
X0094703Y0269226D01*
X0094795Y0269256D01*
X0094888Y0269283D01*
X0094983Y0269305D01*
X0095078Y0269324D01*
X0095174Y0269339D01*
X0095270Y0269350D01*
X0095367Y0269357D01*
X0095464Y0269360D01*
X0095561Y0269359D01*
X0095658Y0269354D01*
X0095754Y0269345D01*
X0095850Y0269332D01*
X0095946Y0269315D01*
X0096041Y0269294D01*
X0096134Y0269270D01*
X0096227Y0269241D01*
X0096319Y0269209D01*
X0096409Y0269173D01*
X0096497Y0269134D01*
X0096584Y0269090D01*
X0096669Y0269044D01*
X0096752Y0268993D01*
X0096833Y0268940D01*
X0096911Y0268883D01*
X0096988Y0268823D01*
X0097061Y0268760D01*
X0097132Y0268694D01*
X0097200Y0268625D01*
X0097266Y0268553D01*
X0097328Y0268479D01*
X0097387Y0268402D01*
X0097443Y0268323D01*
X0097496Y0268241D01*
X0097546Y0268158D01*
X0097591Y0268072D01*
X0097634Y0267985D01*
X0097673Y0267896D01*
X0097708Y0267806D01*
X0097739Y0267714D01*
X0097766Y0267621D01*
X0097790Y0267527D01*
X0097810Y0267432D01*
X0097826Y0267336D01*
X0097838Y0267240D01*
X0097846Y0267143D01*
X0097850Y0267046D01*
X0097850Y0266950D01*
X0097846Y0266853D01*
X0097838Y0266756D01*
X0097826Y0266660D01*
X0097810Y0266564D01*
X0097790Y0266469D01*
X0097766Y0266375D01*
X0097739Y0266282D01*
X0097708Y0266190D01*
X0097673Y0266100D01*
X0097634Y0266011D01*
X0097591Y0265924D01*
X0097546Y0265838D01*
X0097496Y0265755D01*
X0097443Y0265673D01*
X0097387Y0265594D01*
X0097328Y0265517D01*
X0097266Y0265443D01*
X0097200Y0265371D01*
X0097132Y0265302D01*
X0097061Y0265236D01*
X0096988Y0265173D01*
X0096911Y0265113D01*
X0096833Y0265056D01*
X0096752Y0265003D01*
X0096669Y0264952D01*
X0096584Y0264906D01*
X0096497Y0264862D01*
X0096409Y0264823D01*
X0096319Y0264787D01*
X0096227Y0264755D01*
X0096134Y0264726D01*
X0096041Y0264702D01*
X0095946Y0264681D01*
X0095850Y0264664D01*
X0095754Y0264651D01*
X0095658Y0264642D01*
X0095561Y0264637D01*
X0095464Y0264636D01*
X0095367Y0264639D01*
X0095270Y0264646D01*
X0095174Y0264657D01*
X0095078Y0264672D01*
X0094983Y0264691D01*
X0094888Y0264713D01*
X0094795Y0264740D01*
X0094703Y0264770D01*
X0094612Y0264804D01*
X0094523Y0264842D01*
X0094435Y0264884D01*
X0094349Y0264929D01*
X0094265Y0264977D01*
X0094183Y0265029D01*
X0094104Y0265084D01*
X0094026Y0265143D01*
X0093951Y0265204D01*
X0093879Y0265269D01*
X0093809Y0265336D01*
X0093742Y0265407D01*
X0093679Y0265480D01*
X0093618Y0265555D01*
X0093560Y0265633D01*
X0093506Y0265714D01*
X0093455Y0265796D01*
X0093407Y0265881D01*
X0093363Y0265967D01*
X0093322Y0266055D01*
X0093286Y0266145D01*
X0093252Y0266236D01*
X0093223Y0266328D01*
X0093197Y0266422D01*
X0093176Y0266516D01*
X0093158Y0266612D01*
X0093144Y0266708D01*
X0093134Y0266804D01*
X0093128Y0266901D01*
X0093126Y0266998D01*
X0114780Y0266998D02*
X0114782Y0267095D01*
X0114788Y0267192D01*
X0114798Y0267288D01*
X0114812Y0267384D01*
X0114830Y0267480D01*
X0114851Y0267574D01*
X0114877Y0267668D01*
X0114906Y0267760D01*
X0114940Y0267851D01*
X0114976Y0267941D01*
X0115017Y0268029D01*
X0115061Y0268115D01*
X0115109Y0268200D01*
X0115160Y0268282D01*
X0115214Y0268363D01*
X0115272Y0268441D01*
X0115333Y0268516D01*
X0115396Y0268589D01*
X0115463Y0268660D01*
X0115533Y0268727D01*
X0115605Y0268792D01*
X0115680Y0268853D01*
X0115758Y0268912D01*
X0115837Y0268967D01*
X0115919Y0269019D01*
X0116003Y0269067D01*
X0116089Y0269112D01*
X0116177Y0269154D01*
X0116266Y0269192D01*
X0116357Y0269226D01*
X0116449Y0269256D01*
X0116542Y0269283D01*
X0116637Y0269305D01*
X0116732Y0269324D01*
X0116828Y0269339D01*
X0116924Y0269350D01*
X0117021Y0269357D01*
X0117118Y0269360D01*
X0117215Y0269359D01*
X0117312Y0269354D01*
X0117408Y0269345D01*
X0117504Y0269332D01*
X0117600Y0269315D01*
X0117695Y0269294D01*
X0117788Y0269270D01*
X0117881Y0269241D01*
X0117973Y0269209D01*
X0118063Y0269173D01*
X0118151Y0269134D01*
X0118238Y0269090D01*
X0118323Y0269044D01*
X0118406Y0268993D01*
X0118487Y0268940D01*
X0118565Y0268883D01*
X0118642Y0268823D01*
X0118715Y0268760D01*
X0118786Y0268694D01*
X0118854Y0268625D01*
X0118920Y0268553D01*
X0118982Y0268479D01*
X0119041Y0268402D01*
X0119097Y0268323D01*
X0119150Y0268241D01*
X0119200Y0268158D01*
X0119245Y0268072D01*
X0119288Y0267985D01*
X0119327Y0267896D01*
X0119362Y0267806D01*
X0119393Y0267714D01*
X0119420Y0267621D01*
X0119444Y0267527D01*
X0119464Y0267432D01*
X0119480Y0267336D01*
X0119492Y0267240D01*
X0119500Y0267143D01*
X0119504Y0267046D01*
X0119504Y0266950D01*
X0119500Y0266853D01*
X0119492Y0266756D01*
X0119480Y0266660D01*
X0119464Y0266564D01*
X0119444Y0266469D01*
X0119420Y0266375D01*
X0119393Y0266282D01*
X0119362Y0266190D01*
X0119327Y0266100D01*
X0119288Y0266011D01*
X0119245Y0265924D01*
X0119200Y0265838D01*
X0119150Y0265755D01*
X0119097Y0265673D01*
X0119041Y0265594D01*
X0118982Y0265517D01*
X0118920Y0265443D01*
X0118854Y0265371D01*
X0118786Y0265302D01*
X0118715Y0265236D01*
X0118642Y0265173D01*
X0118565Y0265113D01*
X0118487Y0265056D01*
X0118406Y0265003D01*
X0118323Y0264952D01*
X0118238Y0264906D01*
X0118151Y0264862D01*
X0118063Y0264823D01*
X0117973Y0264787D01*
X0117881Y0264755D01*
X0117788Y0264726D01*
X0117695Y0264702D01*
X0117600Y0264681D01*
X0117504Y0264664D01*
X0117408Y0264651D01*
X0117312Y0264642D01*
X0117215Y0264637D01*
X0117118Y0264636D01*
X0117021Y0264639D01*
X0116924Y0264646D01*
X0116828Y0264657D01*
X0116732Y0264672D01*
X0116637Y0264691D01*
X0116542Y0264713D01*
X0116449Y0264740D01*
X0116357Y0264770D01*
X0116266Y0264804D01*
X0116177Y0264842D01*
X0116089Y0264884D01*
X0116003Y0264929D01*
X0115919Y0264977D01*
X0115837Y0265029D01*
X0115758Y0265084D01*
X0115680Y0265143D01*
X0115605Y0265204D01*
X0115533Y0265269D01*
X0115463Y0265336D01*
X0115396Y0265407D01*
X0115333Y0265480D01*
X0115272Y0265555D01*
X0115214Y0265633D01*
X0115160Y0265714D01*
X0115109Y0265796D01*
X0115061Y0265881D01*
X0115017Y0265967D01*
X0114976Y0266055D01*
X0114940Y0266145D01*
X0114906Y0266236D01*
X0114877Y0266328D01*
X0114851Y0266422D01*
X0114830Y0266516D01*
X0114812Y0266612D01*
X0114798Y0266708D01*
X0114788Y0266804D01*
X0114782Y0266901D01*
X0114780Y0266998D01*
X0114780Y0276841D02*
X0114782Y0276938D01*
X0114788Y0277035D01*
X0114798Y0277131D01*
X0114812Y0277227D01*
X0114830Y0277323D01*
X0114851Y0277417D01*
X0114877Y0277511D01*
X0114906Y0277603D01*
X0114940Y0277694D01*
X0114976Y0277784D01*
X0115017Y0277872D01*
X0115061Y0277958D01*
X0115109Y0278043D01*
X0115160Y0278125D01*
X0115214Y0278206D01*
X0115272Y0278284D01*
X0115333Y0278359D01*
X0115396Y0278432D01*
X0115463Y0278503D01*
X0115533Y0278570D01*
X0115605Y0278635D01*
X0115680Y0278696D01*
X0115758Y0278755D01*
X0115837Y0278810D01*
X0115919Y0278862D01*
X0116003Y0278910D01*
X0116089Y0278955D01*
X0116177Y0278997D01*
X0116266Y0279035D01*
X0116357Y0279069D01*
X0116449Y0279099D01*
X0116542Y0279126D01*
X0116637Y0279148D01*
X0116732Y0279167D01*
X0116828Y0279182D01*
X0116924Y0279193D01*
X0117021Y0279200D01*
X0117118Y0279203D01*
X0117215Y0279202D01*
X0117312Y0279197D01*
X0117408Y0279188D01*
X0117504Y0279175D01*
X0117600Y0279158D01*
X0117695Y0279137D01*
X0117788Y0279113D01*
X0117881Y0279084D01*
X0117973Y0279052D01*
X0118063Y0279016D01*
X0118151Y0278977D01*
X0118238Y0278933D01*
X0118323Y0278887D01*
X0118406Y0278836D01*
X0118487Y0278783D01*
X0118565Y0278726D01*
X0118642Y0278666D01*
X0118715Y0278603D01*
X0118786Y0278537D01*
X0118854Y0278468D01*
X0118920Y0278396D01*
X0118982Y0278322D01*
X0119041Y0278245D01*
X0119097Y0278166D01*
X0119150Y0278084D01*
X0119200Y0278001D01*
X0119245Y0277915D01*
X0119288Y0277828D01*
X0119327Y0277739D01*
X0119362Y0277649D01*
X0119393Y0277557D01*
X0119420Y0277464D01*
X0119444Y0277370D01*
X0119464Y0277275D01*
X0119480Y0277179D01*
X0119492Y0277083D01*
X0119500Y0276986D01*
X0119504Y0276889D01*
X0119504Y0276793D01*
X0119500Y0276696D01*
X0119492Y0276599D01*
X0119480Y0276503D01*
X0119464Y0276407D01*
X0119444Y0276312D01*
X0119420Y0276218D01*
X0119393Y0276125D01*
X0119362Y0276033D01*
X0119327Y0275943D01*
X0119288Y0275854D01*
X0119245Y0275767D01*
X0119200Y0275681D01*
X0119150Y0275598D01*
X0119097Y0275516D01*
X0119041Y0275437D01*
X0118982Y0275360D01*
X0118920Y0275286D01*
X0118854Y0275214D01*
X0118786Y0275145D01*
X0118715Y0275079D01*
X0118642Y0275016D01*
X0118565Y0274956D01*
X0118487Y0274899D01*
X0118406Y0274846D01*
X0118323Y0274795D01*
X0118238Y0274749D01*
X0118151Y0274705D01*
X0118063Y0274666D01*
X0117973Y0274630D01*
X0117881Y0274598D01*
X0117788Y0274569D01*
X0117695Y0274545D01*
X0117600Y0274524D01*
X0117504Y0274507D01*
X0117408Y0274494D01*
X0117312Y0274485D01*
X0117215Y0274480D01*
X0117118Y0274479D01*
X0117021Y0274482D01*
X0116924Y0274489D01*
X0116828Y0274500D01*
X0116732Y0274515D01*
X0116637Y0274534D01*
X0116542Y0274556D01*
X0116449Y0274583D01*
X0116357Y0274613D01*
X0116266Y0274647D01*
X0116177Y0274685D01*
X0116089Y0274727D01*
X0116003Y0274772D01*
X0115919Y0274820D01*
X0115837Y0274872D01*
X0115758Y0274927D01*
X0115680Y0274986D01*
X0115605Y0275047D01*
X0115533Y0275112D01*
X0115463Y0275179D01*
X0115396Y0275250D01*
X0115333Y0275323D01*
X0115272Y0275398D01*
X0115214Y0275476D01*
X0115160Y0275557D01*
X0115109Y0275639D01*
X0115061Y0275724D01*
X0115017Y0275810D01*
X0114976Y0275898D01*
X0114940Y0275988D01*
X0114906Y0276079D01*
X0114877Y0276171D01*
X0114851Y0276265D01*
X0114830Y0276359D01*
X0114812Y0276455D01*
X0114798Y0276551D01*
X0114788Y0276647D01*
X0114782Y0276744D01*
X0114780Y0276841D01*
X0154150Y0276841D02*
X0154152Y0276938D01*
X0154158Y0277035D01*
X0154168Y0277131D01*
X0154182Y0277227D01*
X0154200Y0277323D01*
X0154221Y0277417D01*
X0154247Y0277511D01*
X0154276Y0277603D01*
X0154310Y0277694D01*
X0154346Y0277784D01*
X0154387Y0277872D01*
X0154431Y0277958D01*
X0154479Y0278043D01*
X0154530Y0278125D01*
X0154584Y0278206D01*
X0154642Y0278284D01*
X0154703Y0278359D01*
X0154766Y0278432D01*
X0154833Y0278503D01*
X0154903Y0278570D01*
X0154975Y0278635D01*
X0155050Y0278696D01*
X0155128Y0278755D01*
X0155207Y0278810D01*
X0155289Y0278862D01*
X0155373Y0278910D01*
X0155459Y0278955D01*
X0155547Y0278997D01*
X0155636Y0279035D01*
X0155727Y0279069D01*
X0155819Y0279099D01*
X0155912Y0279126D01*
X0156007Y0279148D01*
X0156102Y0279167D01*
X0156198Y0279182D01*
X0156294Y0279193D01*
X0156391Y0279200D01*
X0156488Y0279203D01*
X0156585Y0279202D01*
X0156682Y0279197D01*
X0156778Y0279188D01*
X0156874Y0279175D01*
X0156970Y0279158D01*
X0157065Y0279137D01*
X0157158Y0279113D01*
X0157251Y0279084D01*
X0157343Y0279052D01*
X0157433Y0279016D01*
X0157521Y0278977D01*
X0157608Y0278933D01*
X0157693Y0278887D01*
X0157776Y0278836D01*
X0157857Y0278783D01*
X0157935Y0278726D01*
X0158012Y0278666D01*
X0158085Y0278603D01*
X0158156Y0278537D01*
X0158224Y0278468D01*
X0158290Y0278396D01*
X0158352Y0278322D01*
X0158411Y0278245D01*
X0158467Y0278166D01*
X0158520Y0278084D01*
X0158570Y0278001D01*
X0158615Y0277915D01*
X0158658Y0277828D01*
X0158697Y0277739D01*
X0158732Y0277649D01*
X0158763Y0277557D01*
X0158790Y0277464D01*
X0158814Y0277370D01*
X0158834Y0277275D01*
X0158850Y0277179D01*
X0158862Y0277083D01*
X0158870Y0276986D01*
X0158874Y0276889D01*
X0158874Y0276793D01*
X0158870Y0276696D01*
X0158862Y0276599D01*
X0158850Y0276503D01*
X0158834Y0276407D01*
X0158814Y0276312D01*
X0158790Y0276218D01*
X0158763Y0276125D01*
X0158732Y0276033D01*
X0158697Y0275943D01*
X0158658Y0275854D01*
X0158615Y0275767D01*
X0158570Y0275681D01*
X0158520Y0275598D01*
X0158467Y0275516D01*
X0158411Y0275437D01*
X0158352Y0275360D01*
X0158290Y0275286D01*
X0158224Y0275214D01*
X0158156Y0275145D01*
X0158085Y0275079D01*
X0158012Y0275016D01*
X0157935Y0274956D01*
X0157857Y0274899D01*
X0157776Y0274846D01*
X0157693Y0274795D01*
X0157608Y0274749D01*
X0157521Y0274705D01*
X0157433Y0274666D01*
X0157343Y0274630D01*
X0157251Y0274598D01*
X0157158Y0274569D01*
X0157065Y0274545D01*
X0156970Y0274524D01*
X0156874Y0274507D01*
X0156778Y0274494D01*
X0156682Y0274485D01*
X0156585Y0274480D01*
X0156488Y0274479D01*
X0156391Y0274482D01*
X0156294Y0274489D01*
X0156198Y0274500D01*
X0156102Y0274515D01*
X0156007Y0274534D01*
X0155912Y0274556D01*
X0155819Y0274583D01*
X0155727Y0274613D01*
X0155636Y0274647D01*
X0155547Y0274685D01*
X0155459Y0274727D01*
X0155373Y0274772D01*
X0155289Y0274820D01*
X0155207Y0274872D01*
X0155128Y0274927D01*
X0155050Y0274986D01*
X0154975Y0275047D01*
X0154903Y0275112D01*
X0154833Y0275179D01*
X0154766Y0275250D01*
X0154703Y0275323D01*
X0154642Y0275398D01*
X0154584Y0275476D01*
X0154530Y0275557D01*
X0154479Y0275639D01*
X0154431Y0275724D01*
X0154387Y0275810D01*
X0154346Y0275898D01*
X0154310Y0275988D01*
X0154276Y0276079D01*
X0154247Y0276171D01*
X0154221Y0276265D01*
X0154200Y0276359D01*
X0154182Y0276455D01*
X0154168Y0276551D01*
X0154158Y0276647D01*
X0154152Y0276744D01*
X0154150Y0276841D01*
X0154150Y0266998D02*
X0154152Y0267095D01*
X0154158Y0267192D01*
X0154168Y0267288D01*
X0154182Y0267384D01*
X0154200Y0267480D01*
X0154221Y0267574D01*
X0154247Y0267668D01*
X0154276Y0267760D01*
X0154310Y0267851D01*
X0154346Y0267941D01*
X0154387Y0268029D01*
X0154431Y0268115D01*
X0154479Y0268200D01*
X0154530Y0268282D01*
X0154584Y0268363D01*
X0154642Y0268441D01*
X0154703Y0268516D01*
X0154766Y0268589D01*
X0154833Y0268660D01*
X0154903Y0268727D01*
X0154975Y0268792D01*
X0155050Y0268853D01*
X0155128Y0268912D01*
X0155207Y0268967D01*
X0155289Y0269019D01*
X0155373Y0269067D01*
X0155459Y0269112D01*
X0155547Y0269154D01*
X0155636Y0269192D01*
X0155727Y0269226D01*
X0155819Y0269256D01*
X0155912Y0269283D01*
X0156007Y0269305D01*
X0156102Y0269324D01*
X0156198Y0269339D01*
X0156294Y0269350D01*
X0156391Y0269357D01*
X0156488Y0269360D01*
X0156585Y0269359D01*
X0156682Y0269354D01*
X0156778Y0269345D01*
X0156874Y0269332D01*
X0156970Y0269315D01*
X0157065Y0269294D01*
X0157158Y0269270D01*
X0157251Y0269241D01*
X0157343Y0269209D01*
X0157433Y0269173D01*
X0157521Y0269134D01*
X0157608Y0269090D01*
X0157693Y0269044D01*
X0157776Y0268993D01*
X0157857Y0268940D01*
X0157935Y0268883D01*
X0158012Y0268823D01*
X0158085Y0268760D01*
X0158156Y0268694D01*
X0158224Y0268625D01*
X0158290Y0268553D01*
X0158352Y0268479D01*
X0158411Y0268402D01*
X0158467Y0268323D01*
X0158520Y0268241D01*
X0158570Y0268158D01*
X0158615Y0268072D01*
X0158658Y0267985D01*
X0158697Y0267896D01*
X0158732Y0267806D01*
X0158763Y0267714D01*
X0158790Y0267621D01*
X0158814Y0267527D01*
X0158834Y0267432D01*
X0158850Y0267336D01*
X0158862Y0267240D01*
X0158870Y0267143D01*
X0158874Y0267046D01*
X0158874Y0266950D01*
X0158870Y0266853D01*
X0158862Y0266756D01*
X0158850Y0266660D01*
X0158834Y0266564D01*
X0158814Y0266469D01*
X0158790Y0266375D01*
X0158763Y0266282D01*
X0158732Y0266190D01*
X0158697Y0266100D01*
X0158658Y0266011D01*
X0158615Y0265924D01*
X0158570Y0265838D01*
X0158520Y0265755D01*
X0158467Y0265673D01*
X0158411Y0265594D01*
X0158352Y0265517D01*
X0158290Y0265443D01*
X0158224Y0265371D01*
X0158156Y0265302D01*
X0158085Y0265236D01*
X0158012Y0265173D01*
X0157935Y0265113D01*
X0157857Y0265056D01*
X0157776Y0265003D01*
X0157693Y0264952D01*
X0157608Y0264906D01*
X0157521Y0264862D01*
X0157433Y0264823D01*
X0157343Y0264787D01*
X0157251Y0264755D01*
X0157158Y0264726D01*
X0157065Y0264702D01*
X0156970Y0264681D01*
X0156874Y0264664D01*
X0156778Y0264651D01*
X0156682Y0264642D01*
X0156585Y0264637D01*
X0156488Y0264636D01*
X0156391Y0264639D01*
X0156294Y0264646D01*
X0156198Y0264657D01*
X0156102Y0264672D01*
X0156007Y0264691D01*
X0155912Y0264713D01*
X0155819Y0264740D01*
X0155727Y0264770D01*
X0155636Y0264804D01*
X0155547Y0264842D01*
X0155459Y0264884D01*
X0155373Y0264929D01*
X0155289Y0264977D01*
X0155207Y0265029D01*
X0155128Y0265084D01*
X0155050Y0265143D01*
X0154975Y0265204D01*
X0154903Y0265269D01*
X0154833Y0265336D01*
X0154766Y0265407D01*
X0154703Y0265480D01*
X0154642Y0265555D01*
X0154584Y0265633D01*
X0154530Y0265714D01*
X0154479Y0265796D01*
X0154431Y0265881D01*
X0154387Y0265967D01*
X0154346Y0266055D01*
X0154310Y0266145D01*
X0154276Y0266236D01*
X0154247Y0266328D01*
X0154221Y0266422D01*
X0154200Y0266516D01*
X0154182Y0266612D01*
X0154168Y0266708D01*
X0154158Y0266804D01*
X0154152Y0266901D01*
X0154150Y0266998D01*
X0175803Y0266998D02*
X0175805Y0267095D01*
X0175811Y0267192D01*
X0175821Y0267288D01*
X0175835Y0267384D01*
X0175853Y0267480D01*
X0175874Y0267574D01*
X0175900Y0267668D01*
X0175929Y0267760D01*
X0175963Y0267851D01*
X0175999Y0267941D01*
X0176040Y0268029D01*
X0176084Y0268115D01*
X0176132Y0268200D01*
X0176183Y0268282D01*
X0176237Y0268363D01*
X0176295Y0268441D01*
X0176356Y0268516D01*
X0176419Y0268589D01*
X0176486Y0268660D01*
X0176556Y0268727D01*
X0176628Y0268792D01*
X0176703Y0268853D01*
X0176781Y0268912D01*
X0176860Y0268967D01*
X0176942Y0269019D01*
X0177026Y0269067D01*
X0177112Y0269112D01*
X0177200Y0269154D01*
X0177289Y0269192D01*
X0177380Y0269226D01*
X0177472Y0269256D01*
X0177565Y0269283D01*
X0177660Y0269305D01*
X0177755Y0269324D01*
X0177851Y0269339D01*
X0177947Y0269350D01*
X0178044Y0269357D01*
X0178141Y0269360D01*
X0178238Y0269359D01*
X0178335Y0269354D01*
X0178431Y0269345D01*
X0178527Y0269332D01*
X0178623Y0269315D01*
X0178718Y0269294D01*
X0178811Y0269270D01*
X0178904Y0269241D01*
X0178996Y0269209D01*
X0179086Y0269173D01*
X0179174Y0269134D01*
X0179261Y0269090D01*
X0179346Y0269044D01*
X0179429Y0268993D01*
X0179510Y0268940D01*
X0179588Y0268883D01*
X0179665Y0268823D01*
X0179738Y0268760D01*
X0179809Y0268694D01*
X0179877Y0268625D01*
X0179943Y0268553D01*
X0180005Y0268479D01*
X0180064Y0268402D01*
X0180120Y0268323D01*
X0180173Y0268241D01*
X0180223Y0268158D01*
X0180268Y0268072D01*
X0180311Y0267985D01*
X0180350Y0267896D01*
X0180385Y0267806D01*
X0180416Y0267714D01*
X0180443Y0267621D01*
X0180467Y0267527D01*
X0180487Y0267432D01*
X0180503Y0267336D01*
X0180515Y0267240D01*
X0180523Y0267143D01*
X0180527Y0267046D01*
X0180527Y0266950D01*
X0180523Y0266853D01*
X0180515Y0266756D01*
X0180503Y0266660D01*
X0180487Y0266564D01*
X0180467Y0266469D01*
X0180443Y0266375D01*
X0180416Y0266282D01*
X0180385Y0266190D01*
X0180350Y0266100D01*
X0180311Y0266011D01*
X0180268Y0265924D01*
X0180223Y0265838D01*
X0180173Y0265755D01*
X0180120Y0265673D01*
X0180064Y0265594D01*
X0180005Y0265517D01*
X0179943Y0265443D01*
X0179877Y0265371D01*
X0179809Y0265302D01*
X0179738Y0265236D01*
X0179665Y0265173D01*
X0179588Y0265113D01*
X0179510Y0265056D01*
X0179429Y0265003D01*
X0179346Y0264952D01*
X0179261Y0264906D01*
X0179174Y0264862D01*
X0179086Y0264823D01*
X0178996Y0264787D01*
X0178904Y0264755D01*
X0178811Y0264726D01*
X0178718Y0264702D01*
X0178623Y0264681D01*
X0178527Y0264664D01*
X0178431Y0264651D01*
X0178335Y0264642D01*
X0178238Y0264637D01*
X0178141Y0264636D01*
X0178044Y0264639D01*
X0177947Y0264646D01*
X0177851Y0264657D01*
X0177755Y0264672D01*
X0177660Y0264691D01*
X0177565Y0264713D01*
X0177472Y0264740D01*
X0177380Y0264770D01*
X0177289Y0264804D01*
X0177200Y0264842D01*
X0177112Y0264884D01*
X0177026Y0264929D01*
X0176942Y0264977D01*
X0176860Y0265029D01*
X0176781Y0265084D01*
X0176703Y0265143D01*
X0176628Y0265204D01*
X0176556Y0265269D01*
X0176486Y0265336D01*
X0176419Y0265407D01*
X0176356Y0265480D01*
X0176295Y0265555D01*
X0176237Y0265633D01*
X0176183Y0265714D01*
X0176132Y0265796D01*
X0176084Y0265881D01*
X0176040Y0265967D01*
X0175999Y0266055D01*
X0175963Y0266145D01*
X0175929Y0266236D01*
X0175900Y0266328D01*
X0175874Y0266422D01*
X0175853Y0266516D01*
X0175835Y0266612D01*
X0175821Y0266708D01*
X0175811Y0266804D01*
X0175805Y0266901D01*
X0175803Y0266998D01*
X0175803Y0276841D02*
X0175805Y0276938D01*
X0175811Y0277035D01*
X0175821Y0277131D01*
X0175835Y0277227D01*
X0175853Y0277323D01*
X0175874Y0277417D01*
X0175900Y0277511D01*
X0175929Y0277603D01*
X0175963Y0277694D01*
X0175999Y0277784D01*
X0176040Y0277872D01*
X0176084Y0277958D01*
X0176132Y0278043D01*
X0176183Y0278125D01*
X0176237Y0278206D01*
X0176295Y0278284D01*
X0176356Y0278359D01*
X0176419Y0278432D01*
X0176486Y0278503D01*
X0176556Y0278570D01*
X0176628Y0278635D01*
X0176703Y0278696D01*
X0176781Y0278755D01*
X0176860Y0278810D01*
X0176942Y0278862D01*
X0177026Y0278910D01*
X0177112Y0278955D01*
X0177200Y0278997D01*
X0177289Y0279035D01*
X0177380Y0279069D01*
X0177472Y0279099D01*
X0177565Y0279126D01*
X0177660Y0279148D01*
X0177755Y0279167D01*
X0177851Y0279182D01*
X0177947Y0279193D01*
X0178044Y0279200D01*
X0178141Y0279203D01*
X0178238Y0279202D01*
X0178335Y0279197D01*
X0178431Y0279188D01*
X0178527Y0279175D01*
X0178623Y0279158D01*
X0178718Y0279137D01*
X0178811Y0279113D01*
X0178904Y0279084D01*
X0178996Y0279052D01*
X0179086Y0279016D01*
X0179174Y0278977D01*
X0179261Y0278933D01*
X0179346Y0278887D01*
X0179429Y0278836D01*
X0179510Y0278783D01*
X0179588Y0278726D01*
X0179665Y0278666D01*
X0179738Y0278603D01*
X0179809Y0278537D01*
X0179877Y0278468D01*
X0179943Y0278396D01*
X0180005Y0278322D01*
X0180064Y0278245D01*
X0180120Y0278166D01*
X0180173Y0278084D01*
X0180223Y0278001D01*
X0180268Y0277915D01*
X0180311Y0277828D01*
X0180350Y0277739D01*
X0180385Y0277649D01*
X0180416Y0277557D01*
X0180443Y0277464D01*
X0180467Y0277370D01*
X0180487Y0277275D01*
X0180503Y0277179D01*
X0180515Y0277083D01*
X0180523Y0276986D01*
X0180527Y0276889D01*
X0180527Y0276793D01*
X0180523Y0276696D01*
X0180515Y0276599D01*
X0180503Y0276503D01*
X0180487Y0276407D01*
X0180467Y0276312D01*
X0180443Y0276218D01*
X0180416Y0276125D01*
X0180385Y0276033D01*
X0180350Y0275943D01*
X0180311Y0275854D01*
X0180268Y0275767D01*
X0180223Y0275681D01*
X0180173Y0275598D01*
X0180120Y0275516D01*
X0180064Y0275437D01*
X0180005Y0275360D01*
X0179943Y0275286D01*
X0179877Y0275214D01*
X0179809Y0275145D01*
X0179738Y0275079D01*
X0179665Y0275016D01*
X0179588Y0274956D01*
X0179510Y0274899D01*
X0179429Y0274846D01*
X0179346Y0274795D01*
X0179261Y0274749D01*
X0179174Y0274705D01*
X0179086Y0274666D01*
X0178996Y0274630D01*
X0178904Y0274598D01*
X0178811Y0274569D01*
X0178718Y0274545D01*
X0178623Y0274524D01*
X0178527Y0274507D01*
X0178431Y0274494D01*
X0178335Y0274485D01*
X0178238Y0274480D01*
X0178141Y0274479D01*
X0178044Y0274482D01*
X0177947Y0274489D01*
X0177851Y0274500D01*
X0177755Y0274515D01*
X0177660Y0274534D01*
X0177565Y0274556D01*
X0177472Y0274583D01*
X0177380Y0274613D01*
X0177289Y0274647D01*
X0177200Y0274685D01*
X0177112Y0274727D01*
X0177026Y0274772D01*
X0176942Y0274820D01*
X0176860Y0274872D01*
X0176781Y0274927D01*
X0176703Y0274986D01*
X0176628Y0275047D01*
X0176556Y0275112D01*
X0176486Y0275179D01*
X0176419Y0275250D01*
X0176356Y0275323D01*
X0176295Y0275398D01*
X0176237Y0275476D01*
X0176183Y0275557D01*
X0176132Y0275639D01*
X0176084Y0275724D01*
X0176040Y0275810D01*
X0175999Y0275898D01*
X0175963Y0275988D01*
X0175929Y0276079D01*
X0175900Y0276171D01*
X0175874Y0276265D01*
X0175853Y0276359D01*
X0175835Y0276455D01*
X0175821Y0276551D01*
X0175811Y0276647D01*
X0175805Y0276744D01*
X0175803Y0276841D01*
X0215173Y0276841D02*
X0215175Y0276938D01*
X0215181Y0277035D01*
X0215191Y0277131D01*
X0215205Y0277227D01*
X0215223Y0277323D01*
X0215244Y0277417D01*
X0215270Y0277511D01*
X0215299Y0277603D01*
X0215333Y0277694D01*
X0215369Y0277784D01*
X0215410Y0277872D01*
X0215454Y0277958D01*
X0215502Y0278043D01*
X0215553Y0278125D01*
X0215607Y0278206D01*
X0215665Y0278284D01*
X0215726Y0278359D01*
X0215789Y0278432D01*
X0215856Y0278503D01*
X0215926Y0278570D01*
X0215998Y0278635D01*
X0216073Y0278696D01*
X0216151Y0278755D01*
X0216230Y0278810D01*
X0216312Y0278862D01*
X0216396Y0278910D01*
X0216482Y0278955D01*
X0216570Y0278997D01*
X0216659Y0279035D01*
X0216750Y0279069D01*
X0216842Y0279099D01*
X0216935Y0279126D01*
X0217030Y0279148D01*
X0217125Y0279167D01*
X0217221Y0279182D01*
X0217317Y0279193D01*
X0217414Y0279200D01*
X0217511Y0279203D01*
X0217608Y0279202D01*
X0217705Y0279197D01*
X0217801Y0279188D01*
X0217897Y0279175D01*
X0217993Y0279158D01*
X0218088Y0279137D01*
X0218181Y0279113D01*
X0218274Y0279084D01*
X0218366Y0279052D01*
X0218456Y0279016D01*
X0218544Y0278977D01*
X0218631Y0278933D01*
X0218716Y0278887D01*
X0218799Y0278836D01*
X0218880Y0278783D01*
X0218958Y0278726D01*
X0219035Y0278666D01*
X0219108Y0278603D01*
X0219179Y0278537D01*
X0219247Y0278468D01*
X0219313Y0278396D01*
X0219375Y0278322D01*
X0219434Y0278245D01*
X0219490Y0278166D01*
X0219543Y0278084D01*
X0219593Y0278001D01*
X0219638Y0277915D01*
X0219681Y0277828D01*
X0219720Y0277739D01*
X0219755Y0277649D01*
X0219786Y0277557D01*
X0219813Y0277464D01*
X0219837Y0277370D01*
X0219857Y0277275D01*
X0219873Y0277179D01*
X0219885Y0277083D01*
X0219893Y0276986D01*
X0219897Y0276889D01*
X0219897Y0276793D01*
X0219893Y0276696D01*
X0219885Y0276599D01*
X0219873Y0276503D01*
X0219857Y0276407D01*
X0219837Y0276312D01*
X0219813Y0276218D01*
X0219786Y0276125D01*
X0219755Y0276033D01*
X0219720Y0275943D01*
X0219681Y0275854D01*
X0219638Y0275767D01*
X0219593Y0275681D01*
X0219543Y0275598D01*
X0219490Y0275516D01*
X0219434Y0275437D01*
X0219375Y0275360D01*
X0219313Y0275286D01*
X0219247Y0275214D01*
X0219179Y0275145D01*
X0219108Y0275079D01*
X0219035Y0275016D01*
X0218958Y0274956D01*
X0218880Y0274899D01*
X0218799Y0274846D01*
X0218716Y0274795D01*
X0218631Y0274749D01*
X0218544Y0274705D01*
X0218456Y0274666D01*
X0218366Y0274630D01*
X0218274Y0274598D01*
X0218181Y0274569D01*
X0218088Y0274545D01*
X0217993Y0274524D01*
X0217897Y0274507D01*
X0217801Y0274494D01*
X0217705Y0274485D01*
X0217608Y0274480D01*
X0217511Y0274479D01*
X0217414Y0274482D01*
X0217317Y0274489D01*
X0217221Y0274500D01*
X0217125Y0274515D01*
X0217030Y0274534D01*
X0216935Y0274556D01*
X0216842Y0274583D01*
X0216750Y0274613D01*
X0216659Y0274647D01*
X0216570Y0274685D01*
X0216482Y0274727D01*
X0216396Y0274772D01*
X0216312Y0274820D01*
X0216230Y0274872D01*
X0216151Y0274927D01*
X0216073Y0274986D01*
X0215998Y0275047D01*
X0215926Y0275112D01*
X0215856Y0275179D01*
X0215789Y0275250D01*
X0215726Y0275323D01*
X0215665Y0275398D01*
X0215607Y0275476D01*
X0215553Y0275557D01*
X0215502Y0275639D01*
X0215454Y0275724D01*
X0215410Y0275810D01*
X0215369Y0275898D01*
X0215333Y0275988D01*
X0215299Y0276079D01*
X0215270Y0276171D01*
X0215244Y0276265D01*
X0215223Y0276359D01*
X0215205Y0276455D01*
X0215191Y0276551D01*
X0215181Y0276647D01*
X0215175Y0276744D01*
X0215173Y0276841D01*
X0215173Y0266998D02*
X0215175Y0267095D01*
X0215181Y0267192D01*
X0215191Y0267288D01*
X0215205Y0267384D01*
X0215223Y0267480D01*
X0215244Y0267574D01*
X0215270Y0267668D01*
X0215299Y0267760D01*
X0215333Y0267851D01*
X0215369Y0267941D01*
X0215410Y0268029D01*
X0215454Y0268115D01*
X0215502Y0268200D01*
X0215553Y0268282D01*
X0215607Y0268363D01*
X0215665Y0268441D01*
X0215726Y0268516D01*
X0215789Y0268589D01*
X0215856Y0268660D01*
X0215926Y0268727D01*
X0215998Y0268792D01*
X0216073Y0268853D01*
X0216151Y0268912D01*
X0216230Y0268967D01*
X0216312Y0269019D01*
X0216396Y0269067D01*
X0216482Y0269112D01*
X0216570Y0269154D01*
X0216659Y0269192D01*
X0216750Y0269226D01*
X0216842Y0269256D01*
X0216935Y0269283D01*
X0217030Y0269305D01*
X0217125Y0269324D01*
X0217221Y0269339D01*
X0217317Y0269350D01*
X0217414Y0269357D01*
X0217511Y0269360D01*
X0217608Y0269359D01*
X0217705Y0269354D01*
X0217801Y0269345D01*
X0217897Y0269332D01*
X0217993Y0269315D01*
X0218088Y0269294D01*
X0218181Y0269270D01*
X0218274Y0269241D01*
X0218366Y0269209D01*
X0218456Y0269173D01*
X0218544Y0269134D01*
X0218631Y0269090D01*
X0218716Y0269044D01*
X0218799Y0268993D01*
X0218880Y0268940D01*
X0218958Y0268883D01*
X0219035Y0268823D01*
X0219108Y0268760D01*
X0219179Y0268694D01*
X0219247Y0268625D01*
X0219313Y0268553D01*
X0219375Y0268479D01*
X0219434Y0268402D01*
X0219490Y0268323D01*
X0219543Y0268241D01*
X0219593Y0268158D01*
X0219638Y0268072D01*
X0219681Y0267985D01*
X0219720Y0267896D01*
X0219755Y0267806D01*
X0219786Y0267714D01*
X0219813Y0267621D01*
X0219837Y0267527D01*
X0219857Y0267432D01*
X0219873Y0267336D01*
X0219885Y0267240D01*
X0219893Y0267143D01*
X0219897Y0267046D01*
X0219897Y0266950D01*
X0219893Y0266853D01*
X0219885Y0266756D01*
X0219873Y0266660D01*
X0219857Y0266564D01*
X0219837Y0266469D01*
X0219813Y0266375D01*
X0219786Y0266282D01*
X0219755Y0266190D01*
X0219720Y0266100D01*
X0219681Y0266011D01*
X0219638Y0265924D01*
X0219593Y0265838D01*
X0219543Y0265755D01*
X0219490Y0265673D01*
X0219434Y0265594D01*
X0219375Y0265517D01*
X0219313Y0265443D01*
X0219247Y0265371D01*
X0219179Y0265302D01*
X0219108Y0265236D01*
X0219035Y0265173D01*
X0218958Y0265113D01*
X0218880Y0265056D01*
X0218799Y0265003D01*
X0218716Y0264952D01*
X0218631Y0264906D01*
X0218544Y0264862D01*
X0218456Y0264823D01*
X0218366Y0264787D01*
X0218274Y0264755D01*
X0218181Y0264726D01*
X0218088Y0264702D01*
X0217993Y0264681D01*
X0217897Y0264664D01*
X0217801Y0264651D01*
X0217705Y0264642D01*
X0217608Y0264637D01*
X0217511Y0264636D01*
X0217414Y0264639D01*
X0217317Y0264646D01*
X0217221Y0264657D01*
X0217125Y0264672D01*
X0217030Y0264691D01*
X0216935Y0264713D01*
X0216842Y0264740D01*
X0216750Y0264770D01*
X0216659Y0264804D01*
X0216570Y0264842D01*
X0216482Y0264884D01*
X0216396Y0264929D01*
X0216312Y0264977D01*
X0216230Y0265029D01*
X0216151Y0265084D01*
X0216073Y0265143D01*
X0215998Y0265204D01*
X0215926Y0265269D01*
X0215856Y0265336D01*
X0215789Y0265407D01*
X0215726Y0265480D01*
X0215665Y0265555D01*
X0215607Y0265633D01*
X0215553Y0265714D01*
X0215502Y0265796D01*
X0215454Y0265881D01*
X0215410Y0265967D01*
X0215369Y0266055D01*
X0215333Y0266145D01*
X0215299Y0266236D01*
X0215270Y0266328D01*
X0215244Y0266422D01*
X0215223Y0266516D01*
X0215205Y0266612D01*
X0215191Y0266708D01*
X0215181Y0266804D01*
X0215175Y0266901D01*
X0215173Y0266998D01*
X0236827Y0266998D02*
X0236829Y0267095D01*
X0236835Y0267192D01*
X0236845Y0267288D01*
X0236859Y0267384D01*
X0236877Y0267480D01*
X0236898Y0267574D01*
X0236924Y0267668D01*
X0236953Y0267760D01*
X0236987Y0267851D01*
X0237023Y0267941D01*
X0237064Y0268029D01*
X0237108Y0268115D01*
X0237156Y0268200D01*
X0237207Y0268282D01*
X0237261Y0268363D01*
X0237319Y0268441D01*
X0237380Y0268516D01*
X0237443Y0268589D01*
X0237510Y0268660D01*
X0237580Y0268727D01*
X0237652Y0268792D01*
X0237727Y0268853D01*
X0237805Y0268912D01*
X0237884Y0268967D01*
X0237966Y0269019D01*
X0238050Y0269067D01*
X0238136Y0269112D01*
X0238224Y0269154D01*
X0238313Y0269192D01*
X0238404Y0269226D01*
X0238496Y0269256D01*
X0238589Y0269283D01*
X0238684Y0269305D01*
X0238779Y0269324D01*
X0238875Y0269339D01*
X0238971Y0269350D01*
X0239068Y0269357D01*
X0239165Y0269360D01*
X0239262Y0269359D01*
X0239359Y0269354D01*
X0239455Y0269345D01*
X0239551Y0269332D01*
X0239647Y0269315D01*
X0239742Y0269294D01*
X0239835Y0269270D01*
X0239928Y0269241D01*
X0240020Y0269209D01*
X0240110Y0269173D01*
X0240198Y0269134D01*
X0240285Y0269090D01*
X0240370Y0269044D01*
X0240453Y0268993D01*
X0240534Y0268940D01*
X0240612Y0268883D01*
X0240689Y0268823D01*
X0240762Y0268760D01*
X0240833Y0268694D01*
X0240901Y0268625D01*
X0240967Y0268553D01*
X0241029Y0268479D01*
X0241088Y0268402D01*
X0241144Y0268323D01*
X0241197Y0268241D01*
X0241247Y0268158D01*
X0241292Y0268072D01*
X0241335Y0267985D01*
X0241374Y0267896D01*
X0241409Y0267806D01*
X0241440Y0267714D01*
X0241467Y0267621D01*
X0241491Y0267527D01*
X0241511Y0267432D01*
X0241527Y0267336D01*
X0241539Y0267240D01*
X0241547Y0267143D01*
X0241551Y0267046D01*
X0241551Y0266950D01*
X0241547Y0266853D01*
X0241539Y0266756D01*
X0241527Y0266660D01*
X0241511Y0266564D01*
X0241491Y0266469D01*
X0241467Y0266375D01*
X0241440Y0266282D01*
X0241409Y0266190D01*
X0241374Y0266100D01*
X0241335Y0266011D01*
X0241292Y0265924D01*
X0241247Y0265838D01*
X0241197Y0265755D01*
X0241144Y0265673D01*
X0241088Y0265594D01*
X0241029Y0265517D01*
X0240967Y0265443D01*
X0240901Y0265371D01*
X0240833Y0265302D01*
X0240762Y0265236D01*
X0240689Y0265173D01*
X0240612Y0265113D01*
X0240534Y0265056D01*
X0240453Y0265003D01*
X0240370Y0264952D01*
X0240285Y0264906D01*
X0240198Y0264862D01*
X0240110Y0264823D01*
X0240020Y0264787D01*
X0239928Y0264755D01*
X0239835Y0264726D01*
X0239742Y0264702D01*
X0239647Y0264681D01*
X0239551Y0264664D01*
X0239455Y0264651D01*
X0239359Y0264642D01*
X0239262Y0264637D01*
X0239165Y0264636D01*
X0239068Y0264639D01*
X0238971Y0264646D01*
X0238875Y0264657D01*
X0238779Y0264672D01*
X0238684Y0264691D01*
X0238589Y0264713D01*
X0238496Y0264740D01*
X0238404Y0264770D01*
X0238313Y0264804D01*
X0238224Y0264842D01*
X0238136Y0264884D01*
X0238050Y0264929D01*
X0237966Y0264977D01*
X0237884Y0265029D01*
X0237805Y0265084D01*
X0237727Y0265143D01*
X0237652Y0265204D01*
X0237580Y0265269D01*
X0237510Y0265336D01*
X0237443Y0265407D01*
X0237380Y0265480D01*
X0237319Y0265555D01*
X0237261Y0265633D01*
X0237207Y0265714D01*
X0237156Y0265796D01*
X0237108Y0265881D01*
X0237064Y0265967D01*
X0237023Y0266055D01*
X0236987Y0266145D01*
X0236953Y0266236D01*
X0236924Y0266328D01*
X0236898Y0266422D01*
X0236877Y0266516D01*
X0236859Y0266612D01*
X0236845Y0266708D01*
X0236835Y0266804D01*
X0236829Y0266901D01*
X0236827Y0266998D01*
X0236827Y0276841D02*
X0236829Y0276938D01*
X0236835Y0277035D01*
X0236845Y0277131D01*
X0236859Y0277227D01*
X0236877Y0277323D01*
X0236898Y0277417D01*
X0236924Y0277511D01*
X0236953Y0277603D01*
X0236987Y0277694D01*
X0237023Y0277784D01*
X0237064Y0277872D01*
X0237108Y0277958D01*
X0237156Y0278043D01*
X0237207Y0278125D01*
X0237261Y0278206D01*
X0237319Y0278284D01*
X0237380Y0278359D01*
X0237443Y0278432D01*
X0237510Y0278503D01*
X0237580Y0278570D01*
X0237652Y0278635D01*
X0237727Y0278696D01*
X0237805Y0278755D01*
X0237884Y0278810D01*
X0237966Y0278862D01*
X0238050Y0278910D01*
X0238136Y0278955D01*
X0238224Y0278997D01*
X0238313Y0279035D01*
X0238404Y0279069D01*
X0238496Y0279099D01*
X0238589Y0279126D01*
X0238684Y0279148D01*
X0238779Y0279167D01*
X0238875Y0279182D01*
X0238971Y0279193D01*
X0239068Y0279200D01*
X0239165Y0279203D01*
X0239262Y0279202D01*
X0239359Y0279197D01*
X0239455Y0279188D01*
X0239551Y0279175D01*
X0239647Y0279158D01*
X0239742Y0279137D01*
X0239835Y0279113D01*
X0239928Y0279084D01*
X0240020Y0279052D01*
X0240110Y0279016D01*
X0240198Y0278977D01*
X0240285Y0278933D01*
X0240370Y0278887D01*
X0240453Y0278836D01*
X0240534Y0278783D01*
X0240612Y0278726D01*
X0240689Y0278666D01*
X0240762Y0278603D01*
X0240833Y0278537D01*
X0240901Y0278468D01*
X0240967Y0278396D01*
X0241029Y0278322D01*
X0241088Y0278245D01*
X0241144Y0278166D01*
X0241197Y0278084D01*
X0241247Y0278001D01*
X0241292Y0277915D01*
X0241335Y0277828D01*
X0241374Y0277739D01*
X0241409Y0277649D01*
X0241440Y0277557D01*
X0241467Y0277464D01*
X0241491Y0277370D01*
X0241511Y0277275D01*
X0241527Y0277179D01*
X0241539Y0277083D01*
X0241547Y0276986D01*
X0241551Y0276889D01*
X0241551Y0276793D01*
X0241547Y0276696D01*
X0241539Y0276599D01*
X0241527Y0276503D01*
X0241511Y0276407D01*
X0241491Y0276312D01*
X0241467Y0276218D01*
X0241440Y0276125D01*
X0241409Y0276033D01*
X0241374Y0275943D01*
X0241335Y0275854D01*
X0241292Y0275767D01*
X0241247Y0275681D01*
X0241197Y0275598D01*
X0241144Y0275516D01*
X0241088Y0275437D01*
X0241029Y0275360D01*
X0240967Y0275286D01*
X0240901Y0275214D01*
X0240833Y0275145D01*
X0240762Y0275079D01*
X0240689Y0275016D01*
X0240612Y0274956D01*
X0240534Y0274899D01*
X0240453Y0274846D01*
X0240370Y0274795D01*
X0240285Y0274749D01*
X0240198Y0274705D01*
X0240110Y0274666D01*
X0240020Y0274630D01*
X0239928Y0274598D01*
X0239835Y0274569D01*
X0239742Y0274545D01*
X0239647Y0274524D01*
X0239551Y0274507D01*
X0239455Y0274494D01*
X0239359Y0274485D01*
X0239262Y0274480D01*
X0239165Y0274479D01*
X0239068Y0274482D01*
X0238971Y0274489D01*
X0238875Y0274500D01*
X0238779Y0274515D01*
X0238684Y0274534D01*
X0238589Y0274556D01*
X0238496Y0274583D01*
X0238404Y0274613D01*
X0238313Y0274647D01*
X0238224Y0274685D01*
X0238136Y0274727D01*
X0238050Y0274772D01*
X0237966Y0274820D01*
X0237884Y0274872D01*
X0237805Y0274927D01*
X0237727Y0274986D01*
X0237652Y0275047D01*
X0237580Y0275112D01*
X0237510Y0275179D01*
X0237443Y0275250D01*
X0237380Y0275323D01*
X0237319Y0275398D01*
X0237261Y0275476D01*
X0237207Y0275557D01*
X0237156Y0275639D01*
X0237108Y0275724D01*
X0237064Y0275810D01*
X0237023Y0275898D01*
X0236987Y0275988D01*
X0236953Y0276079D01*
X0236924Y0276171D01*
X0236898Y0276265D01*
X0236877Y0276359D01*
X0236859Y0276455D01*
X0236845Y0276551D01*
X0236835Y0276647D01*
X0236829Y0276744D01*
X0236827Y0276841D01*
X0276197Y0276841D02*
X0276199Y0276938D01*
X0276205Y0277035D01*
X0276215Y0277131D01*
X0276229Y0277227D01*
X0276247Y0277323D01*
X0276268Y0277417D01*
X0276294Y0277511D01*
X0276323Y0277603D01*
X0276357Y0277694D01*
X0276393Y0277784D01*
X0276434Y0277872D01*
X0276478Y0277958D01*
X0276526Y0278043D01*
X0276577Y0278125D01*
X0276631Y0278206D01*
X0276689Y0278284D01*
X0276750Y0278359D01*
X0276813Y0278432D01*
X0276880Y0278503D01*
X0276950Y0278570D01*
X0277022Y0278635D01*
X0277097Y0278696D01*
X0277175Y0278755D01*
X0277254Y0278810D01*
X0277336Y0278862D01*
X0277420Y0278910D01*
X0277506Y0278955D01*
X0277594Y0278997D01*
X0277683Y0279035D01*
X0277774Y0279069D01*
X0277866Y0279099D01*
X0277959Y0279126D01*
X0278054Y0279148D01*
X0278149Y0279167D01*
X0278245Y0279182D01*
X0278341Y0279193D01*
X0278438Y0279200D01*
X0278535Y0279203D01*
X0278632Y0279202D01*
X0278729Y0279197D01*
X0278825Y0279188D01*
X0278921Y0279175D01*
X0279017Y0279158D01*
X0279112Y0279137D01*
X0279205Y0279113D01*
X0279298Y0279084D01*
X0279390Y0279052D01*
X0279480Y0279016D01*
X0279568Y0278977D01*
X0279655Y0278933D01*
X0279740Y0278887D01*
X0279823Y0278836D01*
X0279904Y0278783D01*
X0279982Y0278726D01*
X0280059Y0278666D01*
X0280132Y0278603D01*
X0280203Y0278537D01*
X0280271Y0278468D01*
X0280337Y0278396D01*
X0280399Y0278322D01*
X0280458Y0278245D01*
X0280514Y0278166D01*
X0280567Y0278084D01*
X0280617Y0278001D01*
X0280662Y0277915D01*
X0280705Y0277828D01*
X0280744Y0277739D01*
X0280779Y0277649D01*
X0280810Y0277557D01*
X0280837Y0277464D01*
X0280861Y0277370D01*
X0280881Y0277275D01*
X0280897Y0277179D01*
X0280909Y0277083D01*
X0280917Y0276986D01*
X0280921Y0276889D01*
X0280921Y0276793D01*
X0280917Y0276696D01*
X0280909Y0276599D01*
X0280897Y0276503D01*
X0280881Y0276407D01*
X0280861Y0276312D01*
X0280837Y0276218D01*
X0280810Y0276125D01*
X0280779Y0276033D01*
X0280744Y0275943D01*
X0280705Y0275854D01*
X0280662Y0275767D01*
X0280617Y0275681D01*
X0280567Y0275598D01*
X0280514Y0275516D01*
X0280458Y0275437D01*
X0280399Y0275360D01*
X0280337Y0275286D01*
X0280271Y0275214D01*
X0280203Y0275145D01*
X0280132Y0275079D01*
X0280059Y0275016D01*
X0279982Y0274956D01*
X0279904Y0274899D01*
X0279823Y0274846D01*
X0279740Y0274795D01*
X0279655Y0274749D01*
X0279568Y0274705D01*
X0279480Y0274666D01*
X0279390Y0274630D01*
X0279298Y0274598D01*
X0279205Y0274569D01*
X0279112Y0274545D01*
X0279017Y0274524D01*
X0278921Y0274507D01*
X0278825Y0274494D01*
X0278729Y0274485D01*
X0278632Y0274480D01*
X0278535Y0274479D01*
X0278438Y0274482D01*
X0278341Y0274489D01*
X0278245Y0274500D01*
X0278149Y0274515D01*
X0278054Y0274534D01*
X0277959Y0274556D01*
X0277866Y0274583D01*
X0277774Y0274613D01*
X0277683Y0274647D01*
X0277594Y0274685D01*
X0277506Y0274727D01*
X0277420Y0274772D01*
X0277336Y0274820D01*
X0277254Y0274872D01*
X0277175Y0274927D01*
X0277097Y0274986D01*
X0277022Y0275047D01*
X0276950Y0275112D01*
X0276880Y0275179D01*
X0276813Y0275250D01*
X0276750Y0275323D01*
X0276689Y0275398D01*
X0276631Y0275476D01*
X0276577Y0275557D01*
X0276526Y0275639D01*
X0276478Y0275724D01*
X0276434Y0275810D01*
X0276393Y0275898D01*
X0276357Y0275988D01*
X0276323Y0276079D01*
X0276294Y0276171D01*
X0276268Y0276265D01*
X0276247Y0276359D01*
X0276229Y0276455D01*
X0276215Y0276551D01*
X0276205Y0276647D01*
X0276199Y0276744D01*
X0276197Y0276841D01*
X0276197Y0266998D02*
X0276199Y0267095D01*
X0276205Y0267192D01*
X0276215Y0267288D01*
X0276229Y0267384D01*
X0276247Y0267480D01*
X0276268Y0267574D01*
X0276294Y0267668D01*
X0276323Y0267760D01*
X0276357Y0267851D01*
X0276393Y0267941D01*
X0276434Y0268029D01*
X0276478Y0268115D01*
X0276526Y0268200D01*
X0276577Y0268282D01*
X0276631Y0268363D01*
X0276689Y0268441D01*
X0276750Y0268516D01*
X0276813Y0268589D01*
X0276880Y0268660D01*
X0276950Y0268727D01*
X0277022Y0268792D01*
X0277097Y0268853D01*
X0277175Y0268912D01*
X0277254Y0268967D01*
X0277336Y0269019D01*
X0277420Y0269067D01*
X0277506Y0269112D01*
X0277594Y0269154D01*
X0277683Y0269192D01*
X0277774Y0269226D01*
X0277866Y0269256D01*
X0277959Y0269283D01*
X0278054Y0269305D01*
X0278149Y0269324D01*
X0278245Y0269339D01*
X0278341Y0269350D01*
X0278438Y0269357D01*
X0278535Y0269360D01*
X0278632Y0269359D01*
X0278729Y0269354D01*
X0278825Y0269345D01*
X0278921Y0269332D01*
X0279017Y0269315D01*
X0279112Y0269294D01*
X0279205Y0269270D01*
X0279298Y0269241D01*
X0279390Y0269209D01*
X0279480Y0269173D01*
X0279568Y0269134D01*
X0279655Y0269090D01*
X0279740Y0269044D01*
X0279823Y0268993D01*
X0279904Y0268940D01*
X0279982Y0268883D01*
X0280059Y0268823D01*
X0280132Y0268760D01*
X0280203Y0268694D01*
X0280271Y0268625D01*
X0280337Y0268553D01*
X0280399Y0268479D01*
X0280458Y0268402D01*
X0280514Y0268323D01*
X0280567Y0268241D01*
X0280617Y0268158D01*
X0280662Y0268072D01*
X0280705Y0267985D01*
X0280744Y0267896D01*
X0280779Y0267806D01*
X0280810Y0267714D01*
X0280837Y0267621D01*
X0280861Y0267527D01*
X0280881Y0267432D01*
X0280897Y0267336D01*
X0280909Y0267240D01*
X0280917Y0267143D01*
X0280921Y0267046D01*
X0280921Y0266950D01*
X0280917Y0266853D01*
X0280909Y0266756D01*
X0280897Y0266660D01*
X0280881Y0266564D01*
X0280861Y0266469D01*
X0280837Y0266375D01*
X0280810Y0266282D01*
X0280779Y0266190D01*
X0280744Y0266100D01*
X0280705Y0266011D01*
X0280662Y0265924D01*
X0280617Y0265838D01*
X0280567Y0265755D01*
X0280514Y0265673D01*
X0280458Y0265594D01*
X0280399Y0265517D01*
X0280337Y0265443D01*
X0280271Y0265371D01*
X0280203Y0265302D01*
X0280132Y0265236D01*
X0280059Y0265173D01*
X0279982Y0265113D01*
X0279904Y0265056D01*
X0279823Y0265003D01*
X0279740Y0264952D01*
X0279655Y0264906D01*
X0279568Y0264862D01*
X0279480Y0264823D01*
X0279390Y0264787D01*
X0279298Y0264755D01*
X0279205Y0264726D01*
X0279112Y0264702D01*
X0279017Y0264681D01*
X0278921Y0264664D01*
X0278825Y0264651D01*
X0278729Y0264642D01*
X0278632Y0264637D01*
X0278535Y0264636D01*
X0278438Y0264639D01*
X0278341Y0264646D01*
X0278245Y0264657D01*
X0278149Y0264672D01*
X0278054Y0264691D01*
X0277959Y0264713D01*
X0277866Y0264740D01*
X0277774Y0264770D01*
X0277683Y0264804D01*
X0277594Y0264842D01*
X0277506Y0264884D01*
X0277420Y0264929D01*
X0277336Y0264977D01*
X0277254Y0265029D01*
X0277175Y0265084D01*
X0277097Y0265143D01*
X0277022Y0265204D01*
X0276950Y0265269D01*
X0276880Y0265336D01*
X0276813Y0265407D01*
X0276750Y0265480D01*
X0276689Y0265555D01*
X0276631Y0265633D01*
X0276577Y0265714D01*
X0276526Y0265796D01*
X0276478Y0265881D01*
X0276434Y0265967D01*
X0276393Y0266055D01*
X0276357Y0266145D01*
X0276323Y0266236D01*
X0276294Y0266328D01*
X0276268Y0266422D01*
X0276247Y0266516D01*
X0276229Y0266612D01*
X0276215Y0266708D01*
X0276205Y0266804D01*
X0276199Y0266901D01*
X0276197Y0266998D01*
X0256512Y0247313D02*
X0256514Y0247410D01*
X0256520Y0247507D01*
X0256530Y0247603D01*
X0256544Y0247699D01*
X0256562Y0247795D01*
X0256583Y0247889D01*
X0256609Y0247983D01*
X0256638Y0248075D01*
X0256672Y0248166D01*
X0256708Y0248256D01*
X0256749Y0248344D01*
X0256793Y0248430D01*
X0256841Y0248515D01*
X0256892Y0248597D01*
X0256946Y0248678D01*
X0257004Y0248756D01*
X0257065Y0248831D01*
X0257128Y0248904D01*
X0257195Y0248975D01*
X0257265Y0249042D01*
X0257337Y0249107D01*
X0257412Y0249168D01*
X0257490Y0249227D01*
X0257569Y0249282D01*
X0257651Y0249334D01*
X0257735Y0249382D01*
X0257821Y0249427D01*
X0257909Y0249469D01*
X0257998Y0249507D01*
X0258089Y0249541D01*
X0258181Y0249571D01*
X0258274Y0249598D01*
X0258369Y0249620D01*
X0258464Y0249639D01*
X0258560Y0249654D01*
X0258656Y0249665D01*
X0258753Y0249672D01*
X0258850Y0249675D01*
X0258947Y0249674D01*
X0259044Y0249669D01*
X0259140Y0249660D01*
X0259236Y0249647D01*
X0259332Y0249630D01*
X0259427Y0249609D01*
X0259520Y0249585D01*
X0259613Y0249556D01*
X0259705Y0249524D01*
X0259795Y0249488D01*
X0259883Y0249449D01*
X0259970Y0249405D01*
X0260055Y0249359D01*
X0260138Y0249308D01*
X0260219Y0249255D01*
X0260297Y0249198D01*
X0260374Y0249138D01*
X0260447Y0249075D01*
X0260518Y0249009D01*
X0260586Y0248940D01*
X0260652Y0248868D01*
X0260714Y0248794D01*
X0260773Y0248717D01*
X0260829Y0248638D01*
X0260882Y0248556D01*
X0260932Y0248473D01*
X0260977Y0248387D01*
X0261020Y0248300D01*
X0261059Y0248211D01*
X0261094Y0248121D01*
X0261125Y0248029D01*
X0261152Y0247936D01*
X0261176Y0247842D01*
X0261196Y0247747D01*
X0261212Y0247651D01*
X0261224Y0247555D01*
X0261232Y0247458D01*
X0261236Y0247361D01*
X0261236Y0247265D01*
X0261232Y0247168D01*
X0261224Y0247071D01*
X0261212Y0246975D01*
X0261196Y0246879D01*
X0261176Y0246784D01*
X0261152Y0246690D01*
X0261125Y0246597D01*
X0261094Y0246505D01*
X0261059Y0246415D01*
X0261020Y0246326D01*
X0260977Y0246239D01*
X0260932Y0246153D01*
X0260882Y0246070D01*
X0260829Y0245988D01*
X0260773Y0245909D01*
X0260714Y0245832D01*
X0260652Y0245758D01*
X0260586Y0245686D01*
X0260518Y0245617D01*
X0260447Y0245551D01*
X0260374Y0245488D01*
X0260297Y0245428D01*
X0260219Y0245371D01*
X0260138Y0245318D01*
X0260055Y0245267D01*
X0259970Y0245221D01*
X0259883Y0245177D01*
X0259795Y0245138D01*
X0259705Y0245102D01*
X0259613Y0245070D01*
X0259520Y0245041D01*
X0259427Y0245017D01*
X0259332Y0244996D01*
X0259236Y0244979D01*
X0259140Y0244966D01*
X0259044Y0244957D01*
X0258947Y0244952D01*
X0258850Y0244951D01*
X0258753Y0244954D01*
X0258656Y0244961D01*
X0258560Y0244972D01*
X0258464Y0244987D01*
X0258369Y0245006D01*
X0258274Y0245028D01*
X0258181Y0245055D01*
X0258089Y0245085D01*
X0257998Y0245119D01*
X0257909Y0245157D01*
X0257821Y0245199D01*
X0257735Y0245244D01*
X0257651Y0245292D01*
X0257569Y0245344D01*
X0257490Y0245399D01*
X0257412Y0245458D01*
X0257337Y0245519D01*
X0257265Y0245584D01*
X0257195Y0245651D01*
X0257128Y0245722D01*
X0257065Y0245795D01*
X0257004Y0245870D01*
X0256946Y0245948D01*
X0256892Y0246029D01*
X0256841Y0246111D01*
X0256793Y0246196D01*
X0256749Y0246282D01*
X0256708Y0246370D01*
X0256672Y0246460D01*
X0256638Y0246551D01*
X0256609Y0246643D01*
X0256583Y0246737D01*
X0256562Y0246831D01*
X0256544Y0246927D01*
X0256530Y0247023D01*
X0256520Y0247119D01*
X0256514Y0247216D01*
X0256512Y0247313D01*
X0195488Y0247313D02*
X0195490Y0247410D01*
X0195496Y0247507D01*
X0195506Y0247603D01*
X0195520Y0247699D01*
X0195538Y0247795D01*
X0195559Y0247889D01*
X0195585Y0247983D01*
X0195614Y0248075D01*
X0195648Y0248166D01*
X0195684Y0248256D01*
X0195725Y0248344D01*
X0195769Y0248430D01*
X0195817Y0248515D01*
X0195868Y0248597D01*
X0195922Y0248678D01*
X0195980Y0248756D01*
X0196041Y0248831D01*
X0196104Y0248904D01*
X0196171Y0248975D01*
X0196241Y0249042D01*
X0196313Y0249107D01*
X0196388Y0249168D01*
X0196466Y0249227D01*
X0196545Y0249282D01*
X0196627Y0249334D01*
X0196711Y0249382D01*
X0196797Y0249427D01*
X0196885Y0249469D01*
X0196974Y0249507D01*
X0197065Y0249541D01*
X0197157Y0249571D01*
X0197250Y0249598D01*
X0197345Y0249620D01*
X0197440Y0249639D01*
X0197536Y0249654D01*
X0197632Y0249665D01*
X0197729Y0249672D01*
X0197826Y0249675D01*
X0197923Y0249674D01*
X0198020Y0249669D01*
X0198116Y0249660D01*
X0198212Y0249647D01*
X0198308Y0249630D01*
X0198403Y0249609D01*
X0198496Y0249585D01*
X0198589Y0249556D01*
X0198681Y0249524D01*
X0198771Y0249488D01*
X0198859Y0249449D01*
X0198946Y0249405D01*
X0199031Y0249359D01*
X0199114Y0249308D01*
X0199195Y0249255D01*
X0199273Y0249198D01*
X0199350Y0249138D01*
X0199423Y0249075D01*
X0199494Y0249009D01*
X0199562Y0248940D01*
X0199628Y0248868D01*
X0199690Y0248794D01*
X0199749Y0248717D01*
X0199805Y0248638D01*
X0199858Y0248556D01*
X0199908Y0248473D01*
X0199953Y0248387D01*
X0199996Y0248300D01*
X0200035Y0248211D01*
X0200070Y0248121D01*
X0200101Y0248029D01*
X0200128Y0247936D01*
X0200152Y0247842D01*
X0200172Y0247747D01*
X0200188Y0247651D01*
X0200200Y0247555D01*
X0200208Y0247458D01*
X0200212Y0247361D01*
X0200212Y0247265D01*
X0200208Y0247168D01*
X0200200Y0247071D01*
X0200188Y0246975D01*
X0200172Y0246879D01*
X0200152Y0246784D01*
X0200128Y0246690D01*
X0200101Y0246597D01*
X0200070Y0246505D01*
X0200035Y0246415D01*
X0199996Y0246326D01*
X0199953Y0246239D01*
X0199908Y0246153D01*
X0199858Y0246070D01*
X0199805Y0245988D01*
X0199749Y0245909D01*
X0199690Y0245832D01*
X0199628Y0245758D01*
X0199562Y0245686D01*
X0199494Y0245617D01*
X0199423Y0245551D01*
X0199350Y0245488D01*
X0199273Y0245428D01*
X0199195Y0245371D01*
X0199114Y0245318D01*
X0199031Y0245267D01*
X0198946Y0245221D01*
X0198859Y0245177D01*
X0198771Y0245138D01*
X0198681Y0245102D01*
X0198589Y0245070D01*
X0198496Y0245041D01*
X0198403Y0245017D01*
X0198308Y0244996D01*
X0198212Y0244979D01*
X0198116Y0244966D01*
X0198020Y0244957D01*
X0197923Y0244952D01*
X0197826Y0244951D01*
X0197729Y0244954D01*
X0197632Y0244961D01*
X0197536Y0244972D01*
X0197440Y0244987D01*
X0197345Y0245006D01*
X0197250Y0245028D01*
X0197157Y0245055D01*
X0197065Y0245085D01*
X0196974Y0245119D01*
X0196885Y0245157D01*
X0196797Y0245199D01*
X0196711Y0245244D01*
X0196627Y0245292D01*
X0196545Y0245344D01*
X0196466Y0245399D01*
X0196388Y0245458D01*
X0196313Y0245519D01*
X0196241Y0245584D01*
X0196171Y0245651D01*
X0196104Y0245722D01*
X0196041Y0245795D01*
X0195980Y0245870D01*
X0195922Y0245948D01*
X0195868Y0246029D01*
X0195817Y0246111D01*
X0195769Y0246196D01*
X0195725Y0246282D01*
X0195684Y0246370D01*
X0195648Y0246460D01*
X0195614Y0246551D01*
X0195585Y0246643D01*
X0195559Y0246737D01*
X0195538Y0246831D01*
X0195520Y0246927D01*
X0195506Y0247023D01*
X0195496Y0247119D01*
X0195490Y0247216D01*
X0195488Y0247313D01*
X0134465Y0247313D02*
X0134467Y0247410D01*
X0134473Y0247507D01*
X0134483Y0247603D01*
X0134497Y0247699D01*
X0134515Y0247795D01*
X0134536Y0247889D01*
X0134562Y0247983D01*
X0134591Y0248075D01*
X0134625Y0248166D01*
X0134661Y0248256D01*
X0134702Y0248344D01*
X0134746Y0248430D01*
X0134794Y0248515D01*
X0134845Y0248597D01*
X0134899Y0248678D01*
X0134957Y0248756D01*
X0135018Y0248831D01*
X0135081Y0248904D01*
X0135148Y0248975D01*
X0135218Y0249042D01*
X0135290Y0249107D01*
X0135365Y0249168D01*
X0135443Y0249227D01*
X0135522Y0249282D01*
X0135604Y0249334D01*
X0135688Y0249382D01*
X0135774Y0249427D01*
X0135862Y0249469D01*
X0135951Y0249507D01*
X0136042Y0249541D01*
X0136134Y0249571D01*
X0136227Y0249598D01*
X0136322Y0249620D01*
X0136417Y0249639D01*
X0136513Y0249654D01*
X0136609Y0249665D01*
X0136706Y0249672D01*
X0136803Y0249675D01*
X0136900Y0249674D01*
X0136997Y0249669D01*
X0137093Y0249660D01*
X0137189Y0249647D01*
X0137285Y0249630D01*
X0137380Y0249609D01*
X0137473Y0249585D01*
X0137566Y0249556D01*
X0137658Y0249524D01*
X0137748Y0249488D01*
X0137836Y0249449D01*
X0137923Y0249405D01*
X0138008Y0249359D01*
X0138091Y0249308D01*
X0138172Y0249255D01*
X0138250Y0249198D01*
X0138327Y0249138D01*
X0138400Y0249075D01*
X0138471Y0249009D01*
X0138539Y0248940D01*
X0138605Y0248868D01*
X0138667Y0248794D01*
X0138726Y0248717D01*
X0138782Y0248638D01*
X0138835Y0248556D01*
X0138885Y0248473D01*
X0138930Y0248387D01*
X0138973Y0248300D01*
X0139012Y0248211D01*
X0139047Y0248121D01*
X0139078Y0248029D01*
X0139105Y0247936D01*
X0139129Y0247842D01*
X0139149Y0247747D01*
X0139165Y0247651D01*
X0139177Y0247555D01*
X0139185Y0247458D01*
X0139189Y0247361D01*
X0139189Y0247265D01*
X0139185Y0247168D01*
X0139177Y0247071D01*
X0139165Y0246975D01*
X0139149Y0246879D01*
X0139129Y0246784D01*
X0139105Y0246690D01*
X0139078Y0246597D01*
X0139047Y0246505D01*
X0139012Y0246415D01*
X0138973Y0246326D01*
X0138930Y0246239D01*
X0138885Y0246153D01*
X0138835Y0246070D01*
X0138782Y0245988D01*
X0138726Y0245909D01*
X0138667Y0245832D01*
X0138605Y0245758D01*
X0138539Y0245686D01*
X0138471Y0245617D01*
X0138400Y0245551D01*
X0138327Y0245488D01*
X0138250Y0245428D01*
X0138172Y0245371D01*
X0138091Y0245318D01*
X0138008Y0245267D01*
X0137923Y0245221D01*
X0137836Y0245177D01*
X0137748Y0245138D01*
X0137658Y0245102D01*
X0137566Y0245070D01*
X0137473Y0245041D01*
X0137380Y0245017D01*
X0137285Y0244996D01*
X0137189Y0244979D01*
X0137093Y0244966D01*
X0136997Y0244957D01*
X0136900Y0244952D01*
X0136803Y0244951D01*
X0136706Y0244954D01*
X0136609Y0244961D01*
X0136513Y0244972D01*
X0136417Y0244987D01*
X0136322Y0245006D01*
X0136227Y0245028D01*
X0136134Y0245055D01*
X0136042Y0245085D01*
X0135951Y0245119D01*
X0135862Y0245157D01*
X0135774Y0245199D01*
X0135688Y0245244D01*
X0135604Y0245292D01*
X0135522Y0245344D01*
X0135443Y0245399D01*
X0135365Y0245458D01*
X0135290Y0245519D01*
X0135218Y0245584D01*
X0135148Y0245651D01*
X0135081Y0245722D01*
X0135018Y0245795D01*
X0134957Y0245870D01*
X0134899Y0245948D01*
X0134845Y0246029D01*
X0134794Y0246111D01*
X0134746Y0246196D01*
X0134702Y0246282D01*
X0134661Y0246370D01*
X0134625Y0246460D01*
X0134591Y0246551D01*
X0134562Y0246643D01*
X0134536Y0246737D01*
X0134515Y0246831D01*
X0134497Y0246927D01*
X0134483Y0247023D01*
X0134473Y0247119D01*
X0134467Y0247216D01*
X0134465Y0247313D01*
X0372654Y0266998D02*
X0372656Y0267095D01*
X0372662Y0267192D01*
X0372672Y0267288D01*
X0372686Y0267384D01*
X0372704Y0267480D01*
X0372725Y0267574D01*
X0372751Y0267668D01*
X0372780Y0267760D01*
X0372814Y0267851D01*
X0372850Y0267941D01*
X0372891Y0268029D01*
X0372935Y0268115D01*
X0372983Y0268200D01*
X0373034Y0268282D01*
X0373088Y0268363D01*
X0373146Y0268441D01*
X0373207Y0268516D01*
X0373270Y0268589D01*
X0373337Y0268660D01*
X0373407Y0268727D01*
X0373479Y0268792D01*
X0373554Y0268853D01*
X0373632Y0268912D01*
X0373711Y0268967D01*
X0373793Y0269019D01*
X0373877Y0269067D01*
X0373963Y0269112D01*
X0374051Y0269154D01*
X0374140Y0269192D01*
X0374231Y0269226D01*
X0374323Y0269256D01*
X0374416Y0269283D01*
X0374511Y0269305D01*
X0374606Y0269324D01*
X0374702Y0269339D01*
X0374798Y0269350D01*
X0374895Y0269357D01*
X0374992Y0269360D01*
X0375089Y0269359D01*
X0375186Y0269354D01*
X0375282Y0269345D01*
X0375378Y0269332D01*
X0375474Y0269315D01*
X0375569Y0269294D01*
X0375662Y0269270D01*
X0375755Y0269241D01*
X0375847Y0269209D01*
X0375937Y0269173D01*
X0376025Y0269134D01*
X0376112Y0269090D01*
X0376197Y0269044D01*
X0376280Y0268993D01*
X0376361Y0268940D01*
X0376439Y0268883D01*
X0376516Y0268823D01*
X0376589Y0268760D01*
X0376660Y0268694D01*
X0376728Y0268625D01*
X0376794Y0268553D01*
X0376856Y0268479D01*
X0376915Y0268402D01*
X0376971Y0268323D01*
X0377024Y0268241D01*
X0377074Y0268158D01*
X0377119Y0268072D01*
X0377162Y0267985D01*
X0377201Y0267896D01*
X0377236Y0267806D01*
X0377267Y0267714D01*
X0377294Y0267621D01*
X0377318Y0267527D01*
X0377338Y0267432D01*
X0377354Y0267336D01*
X0377366Y0267240D01*
X0377374Y0267143D01*
X0377378Y0267046D01*
X0377378Y0266950D01*
X0377374Y0266853D01*
X0377366Y0266756D01*
X0377354Y0266660D01*
X0377338Y0266564D01*
X0377318Y0266469D01*
X0377294Y0266375D01*
X0377267Y0266282D01*
X0377236Y0266190D01*
X0377201Y0266100D01*
X0377162Y0266011D01*
X0377119Y0265924D01*
X0377074Y0265838D01*
X0377024Y0265755D01*
X0376971Y0265673D01*
X0376915Y0265594D01*
X0376856Y0265517D01*
X0376794Y0265443D01*
X0376728Y0265371D01*
X0376660Y0265302D01*
X0376589Y0265236D01*
X0376516Y0265173D01*
X0376439Y0265113D01*
X0376361Y0265056D01*
X0376280Y0265003D01*
X0376197Y0264952D01*
X0376112Y0264906D01*
X0376025Y0264862D01*
X0375937Y0264823D01*
X0375847Y0264787D01*
X0375755Y0264755D01*
X0375662Y0264726D01*
X0375569Y0264702D01*
X0375474Y0264681D01*
X0375378Y0264664D01*
X0375282Y0264651D01*
X0375186Y0264642D01*
X0375089Y0264637D01*
X0374992Y0264636D01*
X0374895Y0264639D01*
X0374798Y0264646D01*
X0374702Y0264657D01*
X0374606Y0264672D01*
X0374511Y0264691D01*
X0374416Y0264713D01*
X0374323Y0264740D01*
X0374231Y0264770D01*
X0374140Y0264804D01*
X0374051Y0264842D01*
X0373963Y0264884D01*
X0373877Y0264929D01*
X0373793Y0264977D01*
X0373711Y0265029D01*
X0373632Y0265084D01*
X0373554Y0265143D01*
X0373479Y0265204D01*
X0373407Y0265269D01*
X0373337Y0265336D01*
X0373270Y0265407D01*
X0373207Y0265480D01*
X0373146Y0265555D01*
X0373088Y0265633D01*
X0373034Y0265714D01*
X0372983Y0265796D01*
X0372935Y0265881D01*
X0372891Y0265967D01*
X0372850Y0266055D01*
X0372814Y0266145D01*
X0372780Y0266236D01*
X0372751Y0266328D01*
X0372725Y0266422D01*
X0372704Y0266516D01*
X0372686Y0266612D01*
X0372672Y0266708D01*
X0372662Y0266804D01*
X0372656Y0266901D01*
X0372654Y0266998D01*
X0372654Y0276841D02*
X0372656Y0276938D01*
X0372662Y0277035D01*
X0372672Y0277131D01*
X0372686Y0277227D01*
X0372704Y0277323D01*
X0372725Y0277417D01*
X0372751Y0277511D01*
X0372780Y0277603D01*
X0372814Y0277694D01*
X0372850Y0277784D01*
X0372891Y0277872D01*
X0372935Y0277958D01*
X0372983Y0278043D01*
X0373034Y0278125D01*
X0373088Y0278206D01*
X0373146Y0278284D01*
X0373207Y0278359D01*
X0373270Y0278432D01*
X0373337Y0278503D01*
X0373407Y0278570D01*
X0373479Y0278635D01*
X0373554Y0278696D01*
X0373632Y0278755D01*
X0373711Y0278810D01*
X0373793Y0278862D01*
X0373877Y0278910D01*
X0373963Y0278955D01*
X0374051Y0278997D01*
X0374140Y0279035D01*
X0374231Y0279069D01*
X0374323Y0279099D01*
X0374416Y0279126D01*
X0374511Y0279148D01*
X0374606Y0279167D01*
X0374702Y0279182D01*
X0374798Y0279193D01*
X0374895Y0279200D01*
X0374992Y0279203D01*
X0375089Y0279202D01*
X0375186Y0279197D01*
X0375282Y0279188D01*
X0375378Y0279175D01*
X0375474Y0279158D01*
X0375569Y0279137D01*
X0375662Y0279113D01*
X0375755Y0279084D01*
X0375847Y0279052D01*
X0375937Y0279016D01*
X0376025Y0278977D01*
X0376112Y0278933D01*
X0376197Y0278887D01*
X0376280Y0278836D01*
X0376361Y0278783D01*
X0376439Y0278726D01*
X0376516Y0278666D01*
X0376589Y0278603D01*
X0376660Y0278537D01*
X0376728Y0278468D01*
X0376794Y0278396D01*
X0376856Y0278322D01*
X0376915Y0278245D01*
X0376971Y0278166D01*
X0377024Y0278084D01*
X0377074Y0278001D01*
X0377119Y0277915D01*
X0377162Y0277828D01*
X0377201Y0277739D01*
X0377236Y0277649D01*
X0377267Y0277557D01*
X0377294Y0277464D01*
X0377318Y0277370D01*
X0377338Y0277275D01*
X0377354Y0277179D01*
X0377366Y0277083D01*
X0377374Y0276986D01*
X0377378Y0276889D01*
X0377378Y0276793D01*
X0377374Y0276696D01*
X0377366Y0276599D01*
X0377354Y0276503D01*
X0377338Y0276407D01*
X0377318Y0276312D01*
X0377294Y0276218D01*
X0377267Y0276125D01*
X0377236Y0276033D01*
X0377201Y0275943D01*
X0377162Y0275854D01*
X0377119Y0275767D01*
X0377074Y0275681D01*
X0377024Y0275598D01*
X0376971Y0275516D01*
X0376915Y0275437D01*
X0376856Y0275360D01*
X0376794Y0275286D01*
X0376728Y0275214D01*
X0376660Y0275145D01*
X0376589Y0275079D01*
X0376516Y0275016D01*
X0376439Y0274956D01*
X0376361Y0274899D01*
X0376280Y0274846D01*
X0376197Y0274795D01*
X0376112Y0274749D01*
X0376025Y0274705D01*
X0375937Y0274666D01*
X0375847Y0274630D01*
X0375755Y0274598D01*
X0375662Y0274569D01*
X0375569Y0274545D01*
X0375474Y0274524D01*
X0375378Y0274507D01*
X0375282Y0274494D01*
X0375186Y0274485D01*
X0375089Y0274480D01*
X0374992Y0274479D01*
X0374895Y0274482D01*
X0374798Y0274489D01*
X0374702Y0274500D01*
X0374606Y0274515D01*
X0374511Y0274534D01*
X0374416Y0274556D01*
X0374323Y0274583D01*
X0374231Y0274613D01*
X0374140Y0274647D01*
X0374051Y0274685D01*
X0373963Y0274727D01*
X0373877Y0274772D01*
X0373793Y0274820D01*
X0373711Y0274872D01*
X0373632Y0274927D01*
X0373554Y0274986D01*
X0373479Y0275047D01*
X0373407Y0275112D01*
X0373337Y0275179D01*
X0373270Y0275250D01*
X0373207Y0275323D01*
X0373146Y0275398D01*
X0373088Y0275476D01*
X0373034Y0275557D01*
X0372983Y0275639D01*
X0372935Y0275724D01*
X0372891Y0275810D01*
X0372850Y0275898D01*
X0372814Y0275988D01*
X0372780Y0276079D01*
X0372751Y0276171D01*
X0372725Y0276265D01*
X0372704Y0276359D01*
X0372686Y0276455D01*
X0372672Y0276551D01*
X0372662Y0276647D01*
X0372656Y0276744D01*
X0372654Y0276841D01*
X0412024Y0276841D02*
X0412026Y0276938D01*
X0412032Y0277035D01*
X0412042Y0277131D01*
X0412056Y0277227D01*
X0412074Y0277323D01*
X0412095Y0277417D01*
X0412121Y0277511D01*
X0412150Y0277603D01*
X0412184Y0277694D01*
X0412220Y0277784D01*
X0412261Y0277872D01*
X0412305Y0277958D01*
X0412353Y0278043D01*
X0412404Y0278125D01*
X0412458Y0278206D01*
X0412516Y0278284D01*
X0412577Y0278359D01*
X0412640Y0278432D01*
X0412707Y0278503D01*
X0412777Y0278570D01*
X0412849Y0278635D01*
X0412924Y0278696D01*
X0413002Y0278755D01*
X0413081Y0278810D01*
X0413163Y0278862D01*
X0413247Y0278910D01*
X0413333Y0278955D01*
X0413421Y0278997D01*
X0413510Y0279035D01*
X0413601Y0279069D01*
X0413693Y0279099D01*
X0413786Y0279126D01*
X0413881Y0279148D01*
X0413976Y0279167D01*
X0414072Y0279182D01*
X0414168Y0279193D01*
X0414265Y0279200D01*
X0414362Y0279203D01*
X0414459Y0279202D01*
X0414556Y0279197D01*
X0414652Y0279188D01*
X0414748Y0279175D01*
X0414844Y0279158D01*
X0414939Y0279137D01*
X0415032Y0279113D01*
X0415125Y0279084D01*
X0415217Y0279052D01*
X0415307Y0279016D01*
X0415395Y0278977D01*
X0415482Y0278933D01*
X0415567Y0278887D01*
X0415650Y0278836D01*
X0415731Y0278783D01*
X0415809Y0278726D01*
X0415886Y0278666D01*
X0415959Y0278603D01*
X0416030Y0278537D01*
X0416098Y0278468D01*
X0416164Y0278396D01*
X0416226Y0278322D01*
X0416285Y0278245D01*
X0416341Y0278166D01*
X0416394Y0278084D01*
X0416444Y0278001D01*
X0416489Y0277915D01*
X0416532Y0277828D01*
X0416571Y0277739D01*
X0416606Y0277649D01*
X0416637Y0277557D01*
X0416664Y0277464D01*
X0416688Y0277370D01*
X0416708Y0277275D01*
X0416724Y0277179D01*
X0416736Y0277083D01*
X0416744Y0276986D01*
X0416748Y0276889D01*
X0416748Y0276793D01*
X0416744Y0276696D01*
X0416736Y0276599D01*
X0416724Y0276503D01*
X0416708Y0276407D01*
X0416688Y0276312D01*
X0416664Y0276218D01*
X0416637Y0276125D01*
X0416606Y0276033D01*
X0416571Y0275943D01*
X0416532Y0275854D01*
X0416489Y0275767D01*
X0416444Y0275681D01*
X0416394Y0275598D01*
X0416341Y0275516D01*
X0416285Y0275437D01*
X0416226Y0275360D01*
X0416164Y0275286D01*
X0416098Y0275214D01*
X0416030Y0275145D01*
X0415959Y0275079D01*
X0415886Y0275016D01*
X0415809Y0274956D01*
X0415731Y0274899D01*
X0415650Y0274846D01*
X0415567Y0274795D01*
X0415482Y0274749D01*
X0415395Y0274705D01*
X0415307Y0274666D01*
X0415217Y0274630D01*
X0415125Y0274598D01*
X0415032Y0274569D01*
X0414939Y0274545D01*
X0414844Y0274524D01*
X0414748Y0274507D01*
X0414652Y0274494D01*
X0414556Y0274485D01*
X0414459Y0274480D01*
X0414362Y0274479D01*
X0414265Y0274482D01*
X0414168Y0274489D01*
X0414072Y0274500D01*
X0413976Y0274515D01*
X0413881Y0274534D01*
X0413786Y0274556D01*
X0413693Y0274583D01*
X0413601Y0274613D01*
X0413510Y0274647D01*
X0413421Y0274685D01*
X0413333Y0274727D01*
X0413247Y0274772D01*
X0413163Y0274820D01*
X0413081Y0274872D01*
X0413002Y0274927D01*
X0412924Y0274986D01*
X0412849Y0275047D01*
X0412777Y0275112D01*
X0412707Y0275179D01*
X0412640Y0275250D01*
X0412577Y0275323D01*
X0412516Y0275398D01*
X0412458Y0275476D01*
X0412404Y0275557D01*
X0412353Y0275639D01*
X0412305Y0275724D01*
X0412261Y0275810D01*
X0412220Y0275898D01*
X0412184Y0275988D01*
X0412150Y0276079D01*
X0412121Y0276171D01*
X0412095Y0276265D01*
X0412074Y0276359D01*
X0412056Y0276455D01*
X0412042Y0276551D01*
X0412032Y0276647D01*
X0412026Y0276744D01*
X0412024Y0276841D01*
X0412024Y0266998D02*
X0412026Y0267095D01*
X0412032Y0267192D01*
X0412042Y0267288D01*
X0412056Y0267384D01*
X0412074Y0267480D01*
X0412095Y0267574D01*
X0412121Y0267668D01*
X0412150Y0267760D01*
X0412184Y0267851D01*
X0412220Y0267941D01*
X0412261Y0268029D01*
X0412305Y0268115D01*
X0412353Y0268200D01*
X0412404Y0268282D01*
X0412458Y0268363D01*
X0412516Y0268441D01*
X0412577Y0268516D01*
X0412640Y0268589D01*
X0412707Y0268660D01*
X0412777Y0268727D01*
X0412849Y0268792D01*
X0412924Y0268853D01*
X0413002Y0268912D01*
X0413081Y0268967D01*
X0413163Y0269019D01*
X0413247Y0269067D01*
X0413333Y0269112D01*
X0413421Y0269154D01*
X0413510Y0269192D01*
X0413601Y0269226D01*
X0413693Y0269256D01*
X0413786Y0269283D01*
X0413881Y0269305D01*
X0413976Y0269324D01*
X0414072Y0269339D01*
X0414168Y0269350D01*
X0414265Y0269357D01*
X0414362Y0269360D01*
X0414459Y0269359D01*
X0414556Y0269354D01*
X0414652Y0269345D01*
X0414748Y0269332D01*
X0414844Y0269315D01*
X0414939Y0269294D01*
X0415032Y0269270D01*
X0415125Y0269241D01*
X0415217Y0269209D01*
X0415307Y0269173D01*
X0415395Y0269134D01*
X0415482Y0269090D01*
X0415567Y0269044D01*
X0415650Y0268993D01*
X0415731Y0268940D01*
X0415809Y0268883D01*
X0415886Y0268823D01*
X0415959Y0268760D01*
X0416030Y0268694D01*
X0416098Y0268625D01*
X0416164Y0268553D01*
X0416226Y0268479D01*
X0416285Y0268402D01*
X0416341Y0268323D01*
X0416394Y0268241D01*
X0416444Y0268158D01*
X0416489Y0268072D01*
X0416532Y0267985D01*
X0416571Y0267896D01*
X0416606Y0267806D01*
X0416637Y0267714D01*
X0416664Y0267621D01*
X0416688Y0267527D01*
X0416708Y0267432D01*
X0416724Y0267336D01*
X0416736Y0267240D01*
X0416744Y0267143D01*
X0416748Y0267046D01*
X0416748Y0266950D01*
X0416744Y0266853D01*
X0416736Y0266756D01*
X0416724Y0266660D01*
X0416708Y0266564D01*
X0416688Y0266469D01*
X0416664Y0266375D01*
X0416637Y0266282D01*
X0416606Y0266190D01*
X0416571Y0266100D01*
X0416532Y0266011D01*
X0416489Y0265924D01*
X0416444Y0265838D01*
X0416394Y0265755D01*
X0416341Y0265673D01*
X0416285Y0265594D01*
X0416226Y0265517D01*
X0416164Y0265443D01*
X0416098Y0265371D01*
X0416030Y0265302D01*
X0415959Y0265236D01*
X0415886Y0265173D01*
X0415809Y0265113D01*
X0415731Y0265056D01*
X0415650Y0265003D01*
X0415567Y0264952D01*
X0415482Y0264906D01*
X0415395Y0264862D01*
X0415307Y0264823D01*
X0415217Y0264787D01*
X0415125Y0264755D01*
X0415032Y0264726D01*
X0414939Y0264702D01*
X0414844Y0264681D01*
X0414748Y0264664D01*
X0414652Y0264651D01*
X0414556Y0264642D01*
X0414459Y0264637D01*
X0414362Y0264636D01*
X0414265Y0264639D01*
X0414168Y0264646D01*
X0414072Y0264657D01*
X0413976Y0264672D01*
X0413881Y0264691D01*
X0413786Y0264713D01*
X0413693Y0264740D01*
X0413601Y0264770D01*
X0413510Y0264804D01*
X0413421Y0264842D01*
X0413333Y0264884D01*
X0413247Y0264929D01*
X0413163Y0264977D01*
X0413081Y0265029D01*
X0413002Y0265084D01*
X0412924Y0265143D01*
X0412849Y0265204D01*
X0412777Y0265269D01*
X0412707Y0265336D01*
X0412640Y0265407D01*
X0412577Y0265480D01*
X0412516Y0265555D01*
X0412458Y0265633D01*
X0412404Y0265714D01*
X0412353Y0265796D01*
X0412305Y0265881D01*
X0412261Y0265967D01*
X0412220Y0266055D01*
X0412184Y0266145D01*
X0412150Y0266236D01*
X0412121Y0266328D01*
X0412095Y0266422D01*
X0412074Y0266516D01*
X0412056Y0266612D01*
X0412042Y0266708D01*
X0412032Y0266804D01*
X0412026Y0266901D01*
X0412024Y0266998D01*
X0392339Y0247313D02*
X0392341Y0247410D01*
X0392347Y0247507D01*
X0392357Y0247603D01*
X0392371Y0247699D01*
X0392389Y0247795D01*
X0392410Y0247889D01*
X0392436Y0247983D01*
X0392465Y0248075D01*
X0392499Y0248166D01*
X0392535Y0248256D01*
X0392576Y0248344D01*
X0392620Y0248430D01*
X0392668Y0248515D01*
X0392719Y0248597D01*
X0392773Y0248678D01*
X0392831Y0248756D01*
X0392892Y0248831D01*
X0392955Y0248904D01*
X0393022Y0248975D01*
X0393092Y0249042D01*
X0393164Y0249107D01*
X0393239Y0249168D01*
X0393317Y0249227D01*
X0393396Y0249282D01*
X0393478Y0249334D01*
X0393562Y0249382D01*
X0393648Y0249427D01*
X0393736Y0249469D01*
X0393825Y0249507D01*
X0393916Y0249541D01*
X0394008Y0249571D01*
X0394101Y0249598D01*
X0394196Y0249620D01*
X0394291Y0249639D01*
X0394387Y0249654D01*
X0394483Y0249665D01*
X0394580Y0249672D01*
X0394677Y0249675D01*
X0394774Y0249674D01*
X0394871Y0249669D01*
X0394967Y0249660D01*
X0395063Y0249647D01*
X0395159Y0249630D01*
X0395254Y0249609D01*
X0395347Y0249585D01*
X0395440Y0249556D01*
X0395532Y0249524D01*
X0395622Y0249488D01*
X0395710Y0249449D01*
X0395797Y0249405D01*
X0395882Y0249359D01*
X0395965Y0249308D01*
X0396046Y0249255D01*
X0396124Y0249198D01*
X0396201Y0249138D01*
X0396274Y0249075D01*
X0396345Y0249009D01*
X0396413Y0248940D01*
X0396479Y0248868D01*
X0396541Y0248794D01*
X0396600Y0248717D01*
X0396656Y0248638D01*
X0396709Y0248556D01*
X0396759Y0248473D01*
X0396804Y0248387D01*
X0396847Y0248300D01*
X0396886Y0248211D01*
X0396921Y0248121D01*
X0396952Y0248029D01*
X0396979Y0247936D01*
X0397003Y0247842D01*
X0397023Y0247747D01*
X0397039Y0247651D01*
X0397051Y0247555D01*
X0397059Y0247458D01*
X0397063Y0247361D01*
X0397063Y0247265D01*
X0397059Y0247168D01*
X0397051Y0247071D01*
X0397039Y0246975D01*
X0397023Y0246879D01*
X0397003Y0246784D01*
X0396979Y0246690D01*
X0396952Y0246597D01*
X0396921Y0246505D01*
X0396886Y0246415D01*
X0396847Y0246326D01*
X0396804Y0246239D01*
X0396759Y0246153D01*
X0396709Y0246070D01*
X0396656Y0245988D01*
X0396600Y0245909D01*
X0396541Y0245832D01*
X0396479Y0245758D01*
X0396413Y0245686D01*
X0396345Y0245617D01*
X0396274Y0245551D01*
X0396201Y0245488D01*
X0396124Y0245428D01*
X0396046Y0245371D01*
X0395965Y0245318D01*
X0395882Y0245267D01*
X0395797Y0245221D01*
X0395710Y0245177D01*
X0395622Y0245138D01*
X0395532Y0245102D01*
X0395440Y0245070D01*
X0395347Y0245041D01*
X0395254Y0245017D01*
X0395159Y0244996D01*
X0395063Y0244979D01*
X0394967Y0244966D01*
X0394871Y0244957D01*
X0394774Y0244952D01*
X0394677Y0244951D01*
X0394580Y0244954D01*
X0394483Y0244961D01*
X0394387Y0244972D01*
X0394291Y0244987D01*
X0394196Y0245006D01*
X0394101Y0245028D01*
X0394008Y0245055D01*
X0393916Y0245085D01*
X0393825Y0245119D01*
X0393736Y0245157D01*
X0393648Y0245199D01*
X0393562Y0245244D01*
X0393478Y0245292D01*
X0393396Y0245344D01*
X0393317Y0245399D01*
X0393239Y0245458D01*
X0393164Y0245519D01*
X0393092Y0245584D01*
X0393022Y0245651D01*
X0392955Y0245722D01*
X0392892Y0245795D01*
X0392831Y0245870D01*
X0392773Y0245948D01*
X0392719Y0246029D01*
X0392668Y0246111D01*
X0392620Y0246196D01*
X0392576Y0246282D01*
X0392535Y0246370D01*
X0392499Y0246460D01*
X0392465Y0246551D01*
X0392436Y0246643D01*
X0392410Y0246737D01*
X0392389Y0246831D01*
X0392371Y0246927D01*
X0392357Y0247023D01*
X0392347Y0247119D01*
X0392341Y0247216D01*
X0392339Y0247313D01*
D11*
X0352277Y0207645D02*
X0349329Y0207645D01*
X0352277Y0207645D02*
X0352277Y0204303D01*
X0349329Y0204303D01*
X0349329Y0207645D01*
X0349329Y0205622D02*
X0352277Y0205622D01*
X0352277Y0206941D02*
X0349329Y0206941D01*
X0345584Y0207645D02*
X0342636Y0207645D01*
X0345584Y0207645D02*
X0345584Y0204303D01*
X0342636Y0204303D01*
X0342636Y0207645D01*
X0342636Y0205622D02*
X0345584Y0205622D01*
X0345584Y0206941D02*
X0342636Y0206941D01*
X0340466Y0207645D02*
X0337518Y0207645D01*
X0340466Y0207645D02*
X0340466Y0204303D01*
X0337518Y0204303D01*
X0337518Y0207645D01*
X0337518Y0205622D02*
X0340466Y0205622D01*
X0340466Y0206941D02*
X0337518Y0206941D01*
X0333773Y0207645D02*
X0330825Y0207645D01*
X0333773Y0207645D02*
X0333773Y0204303D01*
X0330825Y0204303D01*
X0330825Y0207645D01*
X0330825Y0205622D02*
X0333773Y0205622D01*
X0333773Y0206941D02*
X0330825Y0206941D01*
X0308970Y0199771D02*
X0306022Y0199771D01*
X0308970Y0199771D02*
X0308970Y0196429D01*
X0306022Y0196429D01*
X0306022Y0199771D01*
X0306022Y0197748D02*
X0308970Y0197748D01*
X0308970Y0199067D02*
X0306022Y0199067D01*
X0302277Y0199771D02*
X0299329Y0199771D01*
X0302277Y0199771D02*
X0302277Y0196429D01*
X0299329Y0196429D01*
X0299329Y0199771D01*
X0299329Y0197748D02*
X0302277Y0197748D01*
X0302277Y0199067D02*
X0299329Y0199067D01*
X0299329Y0191897D02*
X0302277Y0191897D01*
X0302277Y0188555D01*
X0299329Y0188555D01*
X0299329Y0191897D01*
X0299329Y0189874D02*
X0302277Y0189874D01*
X0302277Y0191193D02*
X0299329Y0191193D01*
X0306022Y0191897D02*
X0308970Y0191897D01*
X0308970Y0188555D01*
X0306022Y0188555D01*
X0306022Y0191897D01*
X0306022Y0189874D02*
X0308970Y0189874D01*
X0308970Y0191193D02*
X0306022Y0191193D01*
X0306022Y0184023D02*
X0308970Y0184023D01*
X0308970Y0180681D01*
X0306022Y0180681D01*
X0306022Y0184023D01*
X0306022Y0182000D02*
X0308970Y0182000D01*
X0308970Y0183319D02*
X0306022Y0183319D01*
X0302277Y0184023D02*
X0299329Y0184023D01*
X0302277Y0184023D02*
X0302277Y0180681D01*
X0299329Y0180681D01*
X0299329Y0184023D01*
X0299329Y0182000D02*
X0302277Y0182000D01*
X0302277Y0183319D02*
X0299329Y0183319D01*
X0263109Y0122212D02*
X0263109Y0119264D01*
X0263109Y0122212D02*
X0266451Y0122212D01*
X0266451Y0119264D01*
X0263109Y0119264D01*
X0263109Y0120583D02*
X0266451Y0120583D01*
X0266451Y0121902D02*
X0263109Y0121902D01*
X0255235Y0122212D02*
X0255235Y0119264D01*
X0255235Y0122212D02*
X0258577Y0122212D01*
X0258577Y0119264D01*
X0255235Y0119264D01*
X0255235Y0120583D02*
X0258577Y0120583D01*
X0258577Y0121902D02*
X0255235Y0121902D01*
X0250702Y0122212D02*
X0250702Y0119264D01*
X0247360Y0119264D01*
X0247360Y0122212D01*
X0250702Y0122212D01*
X0250702Y0120583D02*
X0247360Y0120583D01*
X0247360Y0121902D02*
X0250702Y0121902D01*
X0250702Y0115519D02*
X0250702Y0112571D01*
X0247360Y0112571D01*
X0247360Y0115519D01*
X0250702Y0115519D01*
X0250702Y0113890D02*
X0247360Y0113890D01*
X0247360Y0115209D02*
X0250702Y0115209D01*
X0255235Y0115519D02*
X0255235Y0112571D01*
X0255235Y0115519D02*
X0258577Y0115519D01*
X0258577Y0112571D01*
X0255235Y0112571D01*
X0255235Y0113890D02*
X0258577Y0113890D01*
X0258577Y0115209D02*
X0255235Y0115209D01*
X0263109Y0115519D02*
X0263109Y0112571D01*
X0263109Y0115519D02*
X0266451Y0115519D01*
X0266451Y0112571D01*
X0263109Y0112571D01*
X0263109Y0113890D02*
X0266451Y0113890D01*
X0266451Y0115209D02*
X0263109Y0115209D01*
X0255820Y0103910D02*
X0252872Y0103910D01*
X0252872Y0107252D01*
X0255820Y0107252D01*
X0255820Y0103910D01*
X0255820Y0105229D02*
X0252872Y0105229D01*
X0252872Y0106548D02*
X0255820Y0106548D01*
X0249128Y0103910D02*
X0246180Y0103910D01*
X0246180Y0107252D01*
X0249128Y0107252D01*
X0249128Y0103910D01*
X0249128Y0105229D02*
X0246180Y0105229D01*
X0246180Y0106548D02*
X0249128Y0106548D01*
X0247360Y0098590D02*
X0247360Y0095642D01*
X0247360Y0098590D02*
X0250702Y0098590D01*
X0250702Y0095642D01*
X0247360Y0095642D01*
X0247360Y0096961D02*
X0250702Y0096961D01*
X0250702Y0098280D02*
X0247360Y0098280D01*
X0258577Y0098590D02*
X0258577Y0095642D01*
X0255235Y0095642D01*
X0255235Y0098590D01*
X0258577Y0098590D01*
X0258577Y0096961D02*
X0255235Y0096961D01*
X0255235Y0098280D02*
X0258577Y0098280D01*
X0266451Y0098590D02*
X0266451Y0095642D01*
X0263109Y0095642D01*
X0263109Y0098590D01*
X0266451Y0098590D01*
X0266451Y0096961D02*
X0263109Y0096961D01*
X0263109Y0098280D02*
X0266451Y0098280D01*
X0266451Y0091897D02*
X0266451Y0088949D01*
X0263109Y0088949D01*
X0263109Y0091897D01*
X0266451Y0091897D01*
X0266451Y0090268D02*
X0263109Y0090268D01*
X0263109Y0091587D02*
X0266451Y0091587D01*
X0258577Y0091897D02*
X0258577Y0088949D01*
X0255235Y0088949D01*
X0255235Y0091897D01*
X0258577Y0091897D01*
X0258577Y0090268D02*
X0255235Y0090268D01*
X0255235Y0091587D02*
X0258577Y0091587D01*
X0247360Y0091897D02*
X0247360Y0088949D01*
X0247360Y0091897D02*
X0250702Y0091897D01*
X0250702Y0088949D01*
X0247360Y0088949D01*
X0247360Y0090268D02*
X0250702Y0090268D01*
X0250702Y0091587D02*
X0247360Y0091587D01*
X0257203Y0078905D02*
X0257203Y0075957D01*
X0257203Y0078905D02*
X0260545Y0078905D01*
X0260545Y0075957D01*
X0257203Y0075957D01*
X0257203Y0077276D02*
X0260545Y0077276D01*
X0260545Y0078595D02*
X0257203Y0078595D01*
X0265077Y0078905D02*
X0265077Y0075957D01*
X0265077Y0078905D02*
X0268419Y0078905D01*
X0268419Y0075957D01*
X0265077Y0075957D01*
X0265077Y0077276D02*
X0268419Y0077276D01*
X0268419Y0078595D02*
X0265077Y0078595D01*
X0274920Y0078905D02*
X0274920Y0075957D01*
X0274920Y0078905D02*
X0278262Y0078905D01*
X0278262Y0075957D01*
X0274920Y0075957D01*
X0274920Y0077276D02*
X0278262Y0077276D01*
X0278262Y0078595D02*
X0274920Y0078595D01*
X0282794Y0078905D02*
X0282794Y0075957D01*
X0282794Y0078905D02*
X0286136Y0078905D01*
X0286136Y0075957D01*
X0282794Y0075957D01*
X0282794Y0077276D02*
X0286136Y0077276D01*
X0286136Y0078595D02*
X0282794Y0078595D01*
X0282794Y0072212D02*
X0282794Y0069264D01*
X0282794Y0072212D02*
X0286136Y0072212D01*
X0286136Y0069264D01*
X0282794Y0069264D01*
X0282794Y0070583D02*
X0286136Y0070583D01*
X0286136Y0071902D02*
X0282794Y0071902D01*
X0274920Y0072212D02*
X0274920Y0069264D01*
X0274920Y0072212D02*
X0278262Y0072212D01*
X0278262Y0069264D01*
X0274920Y0069264D01*
X0274920Y0070583D02*
X0278262Y0070583D01*
X0278262Y0071902D02*
X0274920Y0071902D01*
X0265077Y0072212D02*
X0265077Y0069264D01*
X0265077Y0072212D02*
X0268419Y0072212D01*
X0268419Y0069264D01*
X0265077Y0069264D01*
X0265077Y0070583D02*
X0268419Y0070583D01*
X0268419Y0071902D02*
X0265077Y0071902D01*
X0257203Y0072212D02*
X0257203Y0069264D01*
X0257203Y0072212D02*
X0260545Y0072212D01*
X0260545Y0069264D01*
X0257203Y0069264D01*
X0257203Y0070583D02*
X0260545Y0070583D01*
X0260545Y0071902D02*
X0257203Y0071902D01*
X0207990Y0088949D02*
X0207990Y0091897D01*
X0211332Y0091897D01*
X0211332Y0088949D01*
X0207990Y0088949D01*
X0207990Y0090268D02*
X0211332Y0090268D01*
X0211332Y0091587D02*
X0207990Y0091587D01*
X0207990Y0095642D02*
X0207990Y0098590D01*
X0211332Y0098590D01*
X0211332Y0095642D01*
X0207990Y0095642D01*
X0207990Y0096961D02*
X0211332Y0096961D01*
X0211332Y0098280D02*
X0207990Y0098280D01*
X0203458Y0098590D02*
X0203458Y0095642D01*
X0200116Y0095642D01*
X0200116Y0098590D01*
X0203458Y0098590D01*
X0203458Y0096961D02*
X0200116Y0096961D01*
X0200116Y0098280D02*
X0203458Y0098280D01*
X0195584Y0098590D02*
X0195584Y0095642D01*
X0192242Y0095642D01*
X0192242Y0098590D01*
X0195584Y0098590D01*
X0195584Y0096961D02*
X0192242Y0096961D01*
X0192242Y0098280D02*
X0195584Y0098280D01*
X0195584Y0091897D02*
X0195584Y0088949D01*
X0192242Y0088949D01*
X0192242Y0091897D01*
X0195584Y0091897D01*
X0195584Y0090268D02*
X0192242Y0090268D01*
X0192242Y0091587D02*
X0195584Y0091587D01*
X0203458Y0091897D02*
X0203458Y0088949D01*
X0200116Y0088949D01*
X0200116Y0091897D01*
X0203458Y0091897D01*
X0203458Y0090268D02*
X0200116Y0090268D01*
X0200116Y0091587D02*
X0203458Y0091587D01*
X0200116Y0112571D02*
X0200116Y0115519D01*
X0203458Y0115519D01*
X0203458Y0112571D01*
X0200116Y0112571D01*
X0200116Y0113890D02*
X0203458Y0113890D01*
X0203458Y0115209D02*
X0200116Y0115209D01*
X0192242Y0115519D02*
X0192242Y0112571D01*
X0192242Y0115519D02*
X0195584Y0115519D01*
X0195584Y0112571D01*
X0192242Y0112571D01*
X0192242Y0113890D02*
X0195584Y0113890D01*
X0195584Y0115209D02*
X0192242Y0115209D01*
X0192242Y0119264D02*
X0192242Y0122212D01*
X0195584Y0122212D01*
X0195584Y0119264D01*
X0192242Y0119264D01*
X0192242Y0120583D02*
X0195584Y0120583D01*
X0195584Y0121902D02*
X0192242Y0121902D01*
X0200116Y0122212D02*
X0200116Y0119264D01*
X0200116Y0122212D02*
X0203458Y0122212D01*
X0203458Y0119264D01*
X0200116Y0119264D01*
X0200116Y0120583D02*
X0203458Y0120583D01*
X0203458Y0121902D02*
X0200116Y0121902D01*
X0211332Y0122212D02*
X0211332Y0119264D01*
X0207990Y0119264D01*
X0207990Y0122212D01*
X0211332Y0122212D01*
X0211332Y0120583D02*
X0207990Y0120583D01*
X0207990Y0121902D02*
X0211332Y0121902D01*
X0211332Y0115519D02*
X0211332Y0112571D01*
X0207990Y0112571D01*
X0207990Y0115519D01*
X0211332Y0115519D01*
X0211332Y0113890D02*
X0207990Y0113890D01*
X0207990Y0115209D02*
X0211332Y0115209D01*
X0141061Y0115519D02*
X0141061Y0112571D01*
X0141061Y0115519D02*
X0144403Y0115519D01*
X0144403Y0112571D01*
X0141061Y0112571D01*
X0141061Y0113890D02*
X0144403Y0113890D01*
X0144403Y0115209D02*
X0141061Y0115209D01*
X0133187Y0115519D02*
X0133187Y0112571D01*
X0133187Y0115519D02*
X0136529Y0115519D01*
X0136529Y0112571D01*
X0133187Y0112571D01*
X0133187Y0113890D02*
X0136529Y0113890D01*
X0136529Y0115209D02*
X0133187Y0115209D01*
X0133187Y0119264D02*
X0133187Y0122212D01*
X0136529Y0122212D01*
X0136529Y0119264D01*
X0133187Y0119264D01*
X0133187Y0120583D02*
X0136529Y0120583D01*
X0136529Y0121902D02*
X0133187Y0121902D01*
X0128655Y0122212D02*
X0128655Y0119264D01*
X0125313Y0119264D01*
X0125313Y0122212D01*
X0128655Y0122212D01*
X0128655Y0120583D02*
X0125313Y0120583D01*
X0125313Y0121902D02*
X0128655Y0121902D01*
X0128655Y0115519D02*
X0128655Y0112571D01*
X0125313Y0112571D01*
X0125313Y0115519D01*
X0128655Y0115519D01*
X0128655Y0113890D02*
X0125313Y0113890D01*
X0125313Y0115209D02*
X0128655Y0115209D01*
X0127080Y0103910D02*
X0124132Y0103910D01*
X0124132Y0107252D01*
X0127080Y0107252D01*
X0127080Y0103910D01*
X0127080Y0105229D02*
X0124132Y0105229D01*
X0124132Y0106548D02*
X0127080Y0106548D01*
X0130825Y0103910D02*
X0133773Y0103910D01*
X0130825Y0103910D02*
X0130825Y0107252D01*
X0133773Y0107252D01*
X0133773Y0103910D01*
X0133773Y0105229D02*
X0130825Y0105229D01*
X0130825Y0106548D02*
X0133773Y0106548D01*
X0136529Y0098590D02*
X0136529Y0095642D01*
X0133187Y0095642D01*
X0133187Y0098590D01*
X0136529Y0098590D01*
X0136529Y0096961D02*
X0133187Y0096961D01*
X0133187Y0098280D02*
X0136529Y0098280D01*
X0144403Y0098590D02*
X0144403Y0095642D01*
X0141061Y0095642D01*
X0141061Y0098590D01*
X0144403Y0098590D01*
X0144403Y0096961D02*
X0141061Y0096961D01*
X0141061Y0098280D02*
X0144403Y0098280D01*
X0144403Y0091897D02*
X0144403Y0088949D01*
X0141061Y0088949D01*
X0141061Y0091897D01*
X0144403Y0091897D01*
X0144403Y0090268D02*
X0141061Y0090268D01*
X0141061Y0091587D02*
X0144403Y0091587D01*
X0136529Y0091897D02*
X0136529Y0088949D01*
X0133187Y0088949D01*
X0133187Y0091897D01*
X0136529Y0091897D01*
X0136529Y0090268D02*
X0133187Y0090268D01*
X0133187Y0091587D02*
X0136529Y0091587D01*
X0125313Y0091897D02*
X0125313Y0088949D01*
X0125313Y0091897D02*
X0128655Y0091897D01*
X0128655Y0088949D01*
X0125313Y0088949D01*
X0125313Y0090268D02*
X0128655Y0090268D01*
X0128655Y0091587D02*
X0125313Y0091587D01*
X0125313Y0095642D02*
X0125313Y0098590D01*
X0128655Y0098590D01*
X0128655Y0095642D01*
X0125313Y0095642D01*
X0125313Y0096961D02*
X0128655Y0096961D01*
X0128655Y0098280D02*
X0125313Y0098280D01*
X0123345Y0078905D02*
X0123345Y0075957D01*
X0123345Y0078905D02*
X0126687Y0078905D01*
X0126687Y0075957D01*
X0123345Y0075957D01*
X0123345Y0077276D02*
X0126687Y0077276D01*
X0126687Y0078595D02*
X0123345Y0078595D01*
X0115471Y0078905D02*
X0115471Y0075957D01*
X0115471Y0078905D02*
X0118813Y0078905D01*
X0118813Y0075957D01*
X0115471Y0075957D01*
X0115471Y0077276D02*
X0118813Y0077276D01*
X0118813Y0078595D02*
X0115471Y0078595D01*
X0107597Y0078905D02*
X0107597Y0075957D01*
X0107597Y0078905D02*
X0110939Y0078905D01*
X0110939Y0075957D01*
X0107597Y0075957D01*
X0107597Y0077276D02*
X0110939Y0077276D01*
X0110939Y0078595D02*
X0107597Y0078595D01*
X0099723Y0078905D02*
X0099723Y0075957D01*
X0099723Y0078905D02*
X0103065Y0078905D01*
X0103065Y0075957D01*
X0099723Y0075957D01*
X0099723Y0077276D02*
X0103065Y0077276D01*
X0103065Y0078595D02*
X0099723Y0078595D01*
X0099723Y0072212D02*
X0099723Y0069264D01*
X0099723Y0072212D02*
X0103065Y0072212D01*
X0103065Y0069264D01*
X0099723Y0069264D01*
X0099723Y0070583D02*
X0103065Y0070583D01*
X0103065Y0071902D02*
X0099723Y0071902D01*
X0107597Y0072212D02*
X0107597Y0069264D01*
X0107597Y0072212D02*
X0110939Y0072212D01*
X0110939Y0069264D01*
X0107597Y0069264D01*
X0107597Y0070583D02*
X0110939Y0070583D01*
X0110939Y0071902D02*
X0107597Y0071902D01*
X0115471Y0072212D02*
X0115471Y0069264D01*
X0115471Y0072212D02*
X0118813Y0072212D01*
X0118813Y0069264D01*
X0115471Y0069264D01*
X0115471Y0070583D02*
X0118813Y0070583D01*
X0118813Y0071902D02*
X0115471Y0071902D01*
X0123345Y0072212D02*
X0123345Y0069264D01*
X0123345Y0072212D02*
X0126687Y0072212D01*
X0126687Y0069264D01*
X0123345Y0069264D01*
X0123345Y0070583D02*
X0126687Y0070583D01*
X0126687Y0071902D02*
X0123345Y0071902D01*
X0085943Y0088949D02*
X0085943Y0091897D01*
X0089285Y0091897D01*
X0089285Y0088949D01*
X0085943Y0088949D01*
X0085943Y0090268D02*
X0089285Y0090268D01*
X0089285Y0091587D02*
X0085943Y0091587D01*
X0085943Y0095642D02*
X0085943Y0098590D01*
X0089285Y0098590D01*
X0089285Y0095642D01*
X0085943Y0095642D01*
X0085943Y0096961D02*
X0089285Y0096961D01*
X0089285Y0098280D02*
X0085943Y0098280D01*
X0081411Y0098590D02*
X0081411Y0095642D01*
X0078069Y0095642D01*
X0078069Y0098590D01*
X0081411Y0098590D01*
X0081411Y0096961D02*
X0078069Y0096961D01*
X0078069Y0098280D02*
X0081411Y0098280D01*
X0073537Y0098590D02*
X0073537Y0095642D01*
X0070195Y0095642D01*
X0070195Y0098590D01*
X0073537Y0098590D01*
X0073537Y0096961D02*
X0070195Y0096961D01*
X0070195Y0098280D02*
X0073537Y0098280D01*
X0073537Y0091897D02*
X0073537Y0088949D01*
X0070195Y0088949D01*
X0070195Y0091897D01*
X0073537Y0091897D01*
X0073537Y0090268D02*
X0070195Y0090268D01*
X0070195Y0091587D02*
X0073537Y0091587D01*
X0081411Y0091897D02*
X0081411Y0088949D01*
X0078069Y0088949D01*
X0078069Y0091897D01*
X0081411Y0091897D01*
X0081411Y0090268D02*
X0078069Y0090268D01*
X0078069Y0091587D02*
X0081411Y0091587D01*
X0078069Y0112571D02*
X0078069Y0115519D01*
X0081411Y0115519D01*
X0081411Y0112571D01*
X0078069Y0112571D01*
X0078069Y0113890D02*
X0081411Y0113890D01*
X0081411Y0115209D02*
X0078069Y0115209D01*
X0070195Y0115519D02*
X0070195Y0112571D01*
X0070195Y0115519D02*
X0073537Y0115519D01*
X0073537Y0112571D01*
X0070195Y0112571D01*
X0070195Y0113890D02*
X0073537Y0113890D01*
X0073537Y0115209D02*
X0070195Y0115209D01*
X0070195Y0119264D02*
X0070195Y0122212D01*
X0073537Y0122212D01*
X0073537Y0119264D01*
X0070195Y0119264D01*
X0070195Y0120583D02*
X0073537Y0120583D01*
X0073537Y0121902D02*
X0070195Y0121902D01*
X0078069Y0122212D02*
X0078069Y0119264D01*
X0078069Y0122212D02*
X0081411Y0122212D01*
X0081411Y0119264D01*
X0078069Y0119264D01*
X0078069Y0120583D02*
X0081411Y0120583D01*
X0081411Y0121902D02*
X0078069Y0121902D01*
X0089285Y0122212D02*
X0089285Y0119264D01*
X0085943Y0119264D01*
X0085943Y0122212D01*
X0089285Y0122212D01*
X0089285Y0120583D02*
X0085943Y0120583D01*
X0085943Y0121902D02*
X0089285Y0121902D01*
X0089285Y0115519D02*
X0089285Y0112571D01*
X0085943Y0112571D01*
X0085943Y0115519D01*
X0089285Y0115519D01*
X0089285Y0113890D02*
X0085943Y0113890D01*
X0085943Y0115209D02*
X0089285Y0115209D01*
X0141061Y0119264D02*
X0141061Y0122212D01*
X0144403Y0122212D01*
X0144403Y0119264D01*
X0141061Y0119264D01*
X0141061Y0120583D02*
X0144403Y0120583D01*
X0144403Y0121902D02*
X0141061Y0121902D01*
X0339880Y0122212D02*
X0339880Y0119264D01*
X0339880Y0122212D02*
X0343222Y0122212D01*
X0343222Y0119264D01*
X0339880Y0119264D01*
X0339880Y0120583D02*
X0343222Y0120583D01*
X0343222Y0121902D02*
X0339880Y0121902D01*
X0351096Y0122212D02*
X0351096Y0119264D01*
X0347754Y0119264D01*
X0347754Y0122212D01*
X0351096Y0122212D01*
X0351096Y0120583D02*
X0347754Y0120583D01*
X0347754Y0121902D02*
X0351096Y0121902D01*
X0358970Y0122212D02*
X0358970Y0119264D01*
X0355628Y0119264D01*
X0355628Y0122212D01*
X0358970Y0122212D01*
X0358970Y0120583D02*
X0355628Y0120583D01*
X0355628Y0121902D02*
X0358970Y0121902D01*
X0363502Y0122212D02*
X0363502Y0119264D01*
X0363502Y0122212D02*
X0366844Y0122212D01*
X0366844Y0119264D01*
X0363502Y0119264D01*
X0363502Y0120583D02*
X0366844Y0120583D01*
X0366844Y0121902D02*
X0363502Y0121902D01*
X0363502Y0115519D02*
X0363502Y0112571D01*
X0363502Y0115519D02*
X0366844Y0115519D01*
X0366844Y0112571D01*
X0363502Y0112571D01*
X0363502Y0113890D02*
X0366844Y0113890D01*
X0366844Y0115209D02*
X0363502Y0115209D01*
X0358970Y0115519D02*
X0358970Y0112571D01*
X0355628Y0112571D01*
X0355628Y0115519D01*
X0358970Y0115519D01*
X0358970Y0113890D02*
X0355628Y0113890D01*
X0355628Y0115209D02*
X0358970Y0115209D01*
X0351096Y0115519D02*
X0351096Y0112571D01*
X0347754Y0112571D01*
X0347754Y0115519D01*
X0351096Y0115519D01*
X0351096Y0113890D02*
X0347754Y0113890D01*
X0347754Y0115209D02*
X0351096Y0115209D01*
X0339880Y0115519D02*
X0339880Y0112571D01*
X0339880Y0115519D02*
X0343222Y0115519D01*
X0343222Y0112571D01*
X0339880Y0112571D01*
X0339880Y0113890D02*
X0343222Y0113890D01*
X0343222Y0115209D02*
X0339880Y0115209D01*
X0355628Y0098590D02*
X0355628Y0095642D01*
X0355628Y0098590D02*
X0358970Y0098590D01*
X0358970Y0095642D01*
X0355628Y0095642D01*
X0355628Y0096961D02*
X0358970Y0096961D01*
X0358970Y0098280D02*
X0355628Y0098280D01*
X0366844Y0098590D02*
X0366844Y0095642D01*
X0363502Y0095642D01*
X0363502Y0098590D01*
X0366844Y0098590D01*
X0366844Y0096961D02*
X0363502Y0096961D01*
X0363502Y0098280D02*
X0366844Y0098280D01*
X0366844Y0091897D02*
X0366844Y0088949D01*
X0363502Y0088949D01*
X0363502Y0091897D01*
X0366844Y0091897D01*
X0366844Y0090268D02*
X0363502Y0090268D01*
X0363502Y0091587D02*
X0366844Y0091587D01*
X0355628Y0091897D02*
X0355628Y0088949D01*
X0355628Y0091897D02*
X0358970Y0091897D01*
X0358970Y0088949D01*
X0355628Y0088949D01*
X0355628Y0090268D02*
X0358970Y0090268D01*
X0358970Y0091587D02*
X0355628Y0091587D01*
X0402872Y0091897D02*
X0402872Y0088949D01*
X0402872Y0091897D02*
X0406214Y0091897D01*
X0406214Y0088949D01*
X0402872Y0088949D01*
X0402872Y0090268D02*
X0406214Y0090268D01*
X0406214Y0091587D02*
X0402872Y0091587D01*
X0402872Y0095642D02*
X0402872Y0098590D01*
X0406214Y0098590D01*
X0406214Y0095642D01*
X0402872Y0095642D01*
X0402872Y0096961D02*
X0406214Y0096961D01*
X0406214Y0098280D02*
X0402872Y0098280D01*
X0401691Y0103910D02*
X0404639Y0103910D01*
X0401691Y0103910D02*
X0401691Y0107252D01*
X0404639Y0107252D01*
X0404639Y0103910D01*
X0404639Y0105229D02*
X0401691Y0105229D01*
X0401691Y0106548D02*
X0404639Y0106548D01*
X0408384Y0103910D02*
X0411332Y0103910D01*
X0408384Y0103910D02*
X0408384Y0107252D01*
X0411332Y0107252D01*
X0411332Y0103910D01*
X0411332Y0105229D02*
X0408384Y0105229D01*
X0408384Y0106548D02*
X0411332Y0106548D01*
X0410746Y0112571D02*
X0410746Y0115519D01*
X0414088Y0115519D01*
X0414088Y0112571D01*
X0410746Y0112571D01*
X0410746Y0113890D02*
X0414088Y0113890D01*
X0414088Y0115209D02*
X0410746Y0115209D01*
X0410746Y0119264D02*
X0410746Y0122212D01*
X0414088Y0122212D01*
X0414088Y0119264D01*
X0410746Y0119264D01*
X0410746Y0120583D02*
X0414088Y0120583D01*
X0414088Y0121902D02*
X0410746Y0121902D01*
X0406214Y0122212D02*
X0406214Y0119264D01*
X0402872Y0119264D01*
X0402872Y0122212D01*
X0406214Y0122212D01*
X0406214Y0120583D02*
X0402872Y0120583D01*
X0402872Y0121902D02*
X0406214Y0121902D01*
X0406214Y0115519D02*
X0406214Y0112571D01*
X0402872Y0112571D01*
X0402872Y0115519D01*
X0406214Y0115519D01*
X0406214Y0113890D02*
X0402872Y0113890D01*
X0402872Y0115209D02*
X0406214Y0115209D01*
X0414088Y0098590D02*
X0414088Y0095642D01*
X0410746Y0095642D01*
X0410746Y0098590D01*
X0414088Y0098590D01*
X0414088Y0096961D02*
X0410746Y0096961D01*
X0410746Y0098280D02*
X0414088Y0098280D01*
X0414088Y0091897D02*
X0414088Y0088949D01*
X0410746Y0088949D01*
X0410746Y0091897D01*
X0414088Y0091897D01*
X0414088Y0090268D02*
X0410746Y0090268D01*
X0410746Y0091587D02*
X0414088Y0091587D01*
X0369408Y0057252D02*
X0369408Y0054304D01*
X0369408Y0057252D02*
X0372750Y0057252D01*
X0372750Y0054304D01*
X0369408Y0054304D01*
X0369408Y0055623D02*
X0372750Y0055623D01*
X0372750Y0056942D02*
X0369408Y0056942D01*
X0369408Y0050559D02*
X0369408Y0047611D01*
X0369408Y0050559D02*
X0372750Y0050559D01*
X0372750Y0047611D01*
X0369408Y0047611D01*
X0369408Y0048930D02*
X0372750Y0048930D01*
X0372750Y0050249D02*
X0369408Y0050249D01*
D12*
X0388795Y0064242D03*
X0398638Y0064242D03*
X0408480Y0064242D03*
X0408480Y0074085D03*
X0398638Y0074085D03*
X0388795Y0074085D03*
X0319898Y0074085D03*
X0310055Y0074085D03*
X0300213Y0074085D03*
X0300213Y0064242D03*
X0310055Y0064242D03*
X0319898Y0064242D03*
X0241157Y0064242D03*
X0231315Y0064242D03*
X0221472Y0064242D03*
X0221472Y0074085D03*
X0231315Y0074085D03*
X0241157Y0074085D03*
X0162417Y0074085D03*
X0152575Y0074085D03*
X0142732Y0074085D03*
X0142732Y0064242D03*
X0152575Y0064242D03*
X0162417Y0064242D03*
X0083677Y0064242D03*
X0073835Y0064242D03*
X0063992Y0064242D03*
X0063992Y0074085D03*
X0073835Y0074085D03*
X0083677Y0074085D03*
D13*
X0075803Y0247313D03*
X0056118Y0266998D03*
X0056118Y0276841D03*
X0095488Y0276841D03*
X0095488Y0266998D03*
X0117142Y0266998D03*
X0117142Y0276841D03*
X0156512Y0276841D03*
X0156512Y0266998D03*
X0178165Y0266998D03*
X0178165Y0276841D03*
X0217535Y0276841D03*
X0217535Y0266998D03*
X0239189Y0266998D03*
X0239189Y0276841D03*
X0278559Y0276841D03*
X0278559Y0266998D03*
X0258874Y0247313D03*
X0197850Y0247313D03*
X0136827Y0247313D03*
X0375016Y0266998D03*
X0375016Y0276841D03*
X0414386Y0276841D03*
X0414386Y0266998D03*
X0394701Y0247313D03*
D14*
X0375016Y0250613D02*
X0375016Y0244013D01*
X0391401Y0266998D02*
X0398001Y0266998D01*
X0414386Y0250613D02*
X0414386Y0244013D01*
X0278559Y0244013D02*
X0278559Y0250613D01*
X0262174Y0266998D02*
X0255574Y0266998D01*
X0239189Y0250613D02*
X0239189Y0244013D01*
X0217535Y0244013D02*
X0217535Y0250613D01*
X0201150Y0266998D02*
X0194550Y0266998D01*
X0178165Y0250613D02*
X0178165Y0244013D01*
X0156512Y0244013D02*
X0156512Y0250613D01*
X0140127Y0266998D02*
X0133527Y0266998D01*
X0117142Y0250613D02*
X0117142Y0244013D01*
X0095488Y0244013D02*
X0095488Y0250613D01*
X0079103Y0266998D02*
X0072503Y0266998D01*
X0056118Y0250613D02*
X0056118Y0244013D01*
D15*
X0024622Y0270935D03*
X0024622Y0054400D03*
X0445882Y0054400D03*
X0445882Y0270935D03*
D16*
X0349425Y0052431D03*
D17*
X0359425Y0052431D03*
D18*
X0384701Y0139793D03*
X0404701Y0139793D03*
X0404701Y0169793D03*
X0384701Y0169793D03*
X0384701Y0192943D03*
X0404701Y0192943D03*
X0404701Y0222943D03*
X0384701Y0222943D03*
X0268874Y0222943D03*
X0248874Y0222943D03*
X0207850Y0222943D03*
X0187850Y0222943D03*
X0146827Y0222943D03*
X0126827Y0222943D03*
X0085803Y0222943D03*
X0065803Y0222943D03*
X0065803Y0192943D03*
X0085803Y0192943D03*
X0085803Y0169793D03*
X0065803Y0169793D03*
X0065803Y0139793D03*
X0085803Y0139793D03*
X0126827Y0139793D03*
X0146827Y0139793D03*
X0187850Y0139793D03*
X0207850Y0139793D03*
X0248874Y0139793D03*
X0268874Y0139793D03*
X0268874Y0169793D03*
X0248874Y0169793D03*
X0248874Y0192943D03*
X0268874Y0192943D03*
X0207850Y0192943D03*
X0187850Y0192943D03*
X0187850Y0169793D03*
X0207850Y0169793D03*
X0146827Y0169793D03*
X0126827Y0169793D03*
X0126827Y0192943D03*
X0146827Y0192943D03*
D19*
X0120683Y0121465D02*
X0120683Y0119697D01*
X0115175Y0119697D01*
X0115175Y0121465D01*
X0120683Y0121465D01*
X0120683Y0120641D02*
X0115175Y0120641D01*
X0120683Y0116465D02*
X0120683Y0114697D01*
X0115175Y0114697D01*
X0115175Y0116465D01*
X0120683Y0116465D01*
X0120683Y0115641D02*
X0115175Y0115641D01*
X0120683Y0111465D02*
X0120683Y0109697D01*
X0115175Y0109697D01*
X0115175Y0111465D01*
X0120683Y0111465D01*
X0120683Y0110641D02*
X0115175Y0110641D01*
X0120683Y0106465D02*
X0120683Y0104697D01*
X0115175Y0104697D01*
X0115175Y0106465D01*
X0120683Y0106465D01*
X0120683Y0105641D02*
X0115175Y0105641D01*
X0120683Y0101465D02*
X0120683Y0099697D01*
X0115175Y0099697D01*
X0115175Y0101465D01*
X0120683Y0101465D01*
X0120683Y0100641D02*
X0115175Y0100641D01*
X0120683Y0096465D02*
X0120683Y0094697D01*
X0115175Y0094697D01*
X0115175Y0096465D01*
X0120683Y0096465D01*
X0120683Y0095641D02*
X0115175Y0095641D01*
X0120683Y0091465D02*
X0120683Y0089697D01*
X0115175Y0089697D01*
X0115175Y0091465D01*
X0120683Y0091465D01*
X0120683Y0090641D02*
X0115175Y0090641D01*
X0099423Y0091465D02*
X0099423Y0089697D01*
X0093915Y0089697D01*
X0093915Y0091465D01*
X0099423Y0091465D01*
X0099423Y0090641D02*
X0093915Y0090641D01*
X0099423Y0094697D02*
X0099423Y0096465D01*
X0099423Y0094697D02*
X0093915Y0094697D01*
X0093915Y0096465D01*
X0099423Y0096465D01*
X0099423Y0095641D02*
X0093915Y0095641D01*
X0099423Y0099697D02*
X0099423Y0101465D01*
X0099423Y0099697D02*
X0093915Y0099697D01*
X0093915Y0101465D01*
X0099423Y0101465D01*
X0099423Y0100641D02*
X0093915Y0100641D01*
X0099423Y0104697D02*
X0099423Y0106465D01*
X0099423Y0104697D02*
X0093915Y0104697D01*
X0093915Y0106465D01*
X0099423Y0106465D01*
X0099423Y0105641D02*
X0093915Y0105641D01*
X0099423Y0109697D02*
X0099423Y0111465D01*
X0099423Y0109697D02*
X0093915Y0109697D01*
X0093915Y0111465D01*
X0099423Y0111465D01*
X0099423Y0110641D02*
X0093915Y0110641D01*
X0099423Y0114697D02*
X0099423Y0116465D01*
X0099423Y0114697D02*
X0093915Y0114697D01*
X0093915Y0116465D01*
X0099423Y0116465D01*
X0099423Y0115641D02*
X0093915Y0115641D01*
X0099423Y0119697D02*
X0099423Y0121465D01*
X0099423Y0119697D02*
X0093915Y0119697D01*
X0093915Y0121465D01*
X0099423Y0121465D01*
X0099423Y0120641D02*
X0093915Y0120641D01*
X0221471Y0121465D02*
X0221471Y0119697D01*
X0215963Y0119697D01*
X0215963Y0121465D01*
X0221471Y0121465D01*
X0221471Y0120641D02*
X0215963Y0120641D01*
X0221471Y0116465D02*
X0221471Y0114697D01*
X0215963Y0114697D01*
X0215963Y0116465D01*
X0221471Y0116465D01*
X0221471Y0115641D02*
X0215963Y0115641D01*
X0221471Y0111465D02*
X0221471Y0109697D01*
X0215963Y0109697D01*
X0215963Y0111465D01*
X0221471Y0111465D01*
X0221471Y0110641D02*
X0215963Y0110641D01*
X0221471Y0106465D02*
X0221471Y0104697D01*
X0215963Y0104697D01*
X0215963Y0106465D01*
X0221471Y0106465D01*
X0221471Y0105641D02*
X0215963Y0105641D01*
X0221471Y0101465D02*
X0221471Y0099697D01*
X0215963Y0099697D01*
X0215963Y0101465D01*
X0221471Y0101465D01*
X0221471Y0100641D02*
X0215963Y0100641D01*
X0221471Y0096465D02*
X0221471Y0094697D01*
X0215963Y0094697D01*
X0215963Y0096465D01*
X0221471Y0096465D01*
X0221471Y0095641D02*
X0215963Y0095641D01*
X0221471Y0091465D02*
X0221471Y0089697D01*
X0215963Y0089697D01*
X0215963Y0091465D01*
X0221471Y0091465D01*
X0221471Y0090641D02*
X0215963Y0090641D01*
X0242730Y0091465D02*
X0242730Y0089697D01*
X0237222Y0089697D01*
X0237222Y0091465D01*
X0242730Y0091465D01*
X0242730Y0090641D02*
X0237222Y0090641D01*
X0242730Y0094697D02*
X0242730Y0096465D01*
X0242730Y0094697D02*
X0237222Y0094697D01*
X0237222Y0096465D01*
X0242730Y0096465D01*
X0242730Y0095641D02*
X0237222Y0095641D01*
X0242730Y0099697D02*
X0242730Y0101465D01*
X0242730Y0099697D02*
X0237222Y0099697D01*
X0237222Y0101465D01*
X0242730Y0101465D01*
X0242730Y0100641D02*
X0237222Y0100641D01*
X0242730Y0104697D02*
X0242730Y0106465D01*
X0242730Y0104697D02*
X0237222Y0104697D01*
X0237222Y0106465D01*
X0242730Y0106465D01*
X0242730Y0105641D02*
X0237222Y0105641D01*
X0242730Y0109697D02*
X0242730Y0111465D01*
X0242730Y0109697D02*
X0237222Y0109697D01*
X0237222Y0111465D01*
X0242730Y0111465D01*
X0242730Y0110641D02*
X0237222Y0110641D01*
X0242730Y0114697D02*
X0242730Y0116465D01*
X0242730Y0114697D02*
X0237222Y0114697D01*
X0237222Y0116465D01*
X0242730Y0116465D01*
X0242730Y0115641D02*
X0237222Y0115641D01*
X0242730Y0119697D02*
X0242730Y0121465D01*
X0242730Y0119697D02*
X0237222Y0119697D01*
X0237222Y0121465D01*
X0242730Y0121465D01*
X0242730Y0120641D02*
X0237222Y0120641D01*
X0376982Y0121465D02*
X0376982Y0119697D01*
X0371474Y0119697D01*
X0371474Y0121465D01*
X0376982Y0121465D01*
X0376982Y0120641D02*
X0371474Y0120641D01*
X0376982Y0116465D02*
X0376982Y0114697D01*
X0371474Y0114697D01*
X0371474Y0116465D01*
X0376982Y0116465D01*
X0376982Y0115641D02*
X0371474Y0115641D01*
X0376982Y0111465D02*
X0376982Y0109697D01*
X0371474Y0109697D01*
X0371474Y0111465D01*
X0376982Y0111465D01*
X0376982Y0110641D02*
X0371474Y0110641D01*
X0376982Y0106465D02*
X0376982Y0104697D01*
X0371474Y0104697D01*
X0371474Y0106465D01*
X0376982Y0106465D01*
X0376982Y0105641D02*
X0371474Y0105641D01*
X0376982Y0101465D02*
X0376982Y0099697D01*
X0371474Y0099697D01*
X0371474Y0101465D01*
X0376982Y0101465D01*
X0376982Y0100641D02*
X0371474Y0100641D01*
X0376982Y0096465D02*
X0376982Y0094697D01*
X0371474Y0094697D01*
X0371474Y0096465D01*
X0376982Y0096465D01*
X0376982Y0095641D02*
X0371474Y0095641D01*
X0376982Y0091465D02*
X0376982Y0089697D01*
X0371474Y0089697D01*
X0371474Y0091465D01*
X0376982Y0091465D01*
X0376982Y0090641D02*
X0371474Y0090641D01*
X0398242Y0091465D02*
X0398242Y0089697D01*
X0392734Y0089697D01*
X0392734Y0091465D01*
X0398242Y0091465D01*
X0398242Y0090641D02*
X0392734Y0090641D01*
X0398242Y0094697D02*
X0398242Y0096465D01*
X0398242Y0094697D02*
X0392734Y0094697D01*
X0392734Y0096465D01*
X0398242Y0096465D01*
X0398242Y0095641D02*
X0392734Y0095641D01*
X0398242Y0099697D02*
X0398242Y0101465D01*
X0398242Y0099697D02*
X0392734Y0099697D01*
X0392734Y0101465D01*
X0398242Y0101465D01*
X0398242Y0100641D02*
X0392734Y0100641D01*
X0398242Y0104697D02*
X0398242Y0106465D01*
X0398242Y0104697D02*
X0392734Y0104697D01*
X0392734Y0106465D01*
X0398242Y0106465D01*
X0398242Y0105641D02*
X0392734Y0105641D01*
X0398242Y0109697D02*
X0398242Y0111465D01*
X0398242Y0109697D02*
X0392734Y0109697D01*
X0392734Y0111465D01*
X0398242Y0111465D01*
X0398242Y0110641D02*
X0392734Y0110641D01*
X0398242Y0114697D02*
X0398242Y0116465D01*
X0398242Y0114697D02*
X0392734Y0114697D01*
X0392734Y0116465D01*
X0398242Y0116465D01*
X0398242Y0115641D02*
X0392734Y0115641D01*
X0398242Y0119697D02*
X0398242Y0121465D01*
X0398242Y0119697D02*
X0392734Y0119697D01*
X0392734Y0121465D01*
X0398242Y0121465D01*
X0398242Y0120641D02*
X0392734Y0120641D01*
D20*
X0331709Y0229990D02*
X0323835Y0229990D01*
X0308874Y0237470D02*
X0308874Y0245344D01*
X0323835Y0252825D02*
X0331709Y0252825D01*
X0323835Y0252825D01*
D21*
X0328545Y0173509D02*
X0342747Y0173509D01*
X0342747Y0166393D01*
X0328545Y0166393D01*
X0328545Y0173509D01*
X0328545Y0167493D02*
X0342747Y0167493D01*
X0342747Y0168593D02*
X0328545Y0168593D01*
X0328545Y0169693D02*
X0342747Y0169693D01*
X0342747Y0170793D02*
X0328545Y0170793D01*
X0328545Y0171893D02*
X0342747Y0171893D01*
X0342747Y0172993D02*
X0328545Y0172993D01*
D22*
X0329240Y0198387D02*
X0323942Y0198387D01*
X0329240Y0198387D02*
X0329240Y0191121D01*
X0323942Y0191121D01*
X0323942Y0198387D01*
X0323942Y0192080D02*
X0329240Y0192080D01*
X0329240Y0193039D02*
X0323942Y0193039D01*
X0323942Y0193998D02*
X0329240Y0193998D01*
X0329240Y0194957D02*
X0323942Y0194957D01*
X0323942Y0195916D02*
X0329240Y0195916D01*
X0329240Y0196875D02*
X0323942Y0196875D01*
X0323942Y0197834D02*
X0329240Y0197834D01*
X0332997Y0198387D02*
X0338295Y0198387D01*
X0338295Y0191121D01*
X0332997Y0191121D01*
X0332997Y0198387D01*
X0332997Y0192080D02*
X0338295Y0192080D01*
X0338295Y0193039D02*
X0332997Y0193039D01*
X0332997Y0193998D02*
X0338295Y0193998D01*
X0338295Y0194957D02*
X0332997Y0194957D01*
X0332997Y0195916D02*
X0338295Y0195916D01*
X0338295Y0196875D02*
X0332997Y0196875D01*
X0332997Y0197834D02*
X0338295Y0197834D01*
X0342052Y0198387D02*
X0347350Y0198387D01*
X0347350Y0191121D01*
X0342052Y0191121D01*
X0342052Y0198387D01*
X0342052Y0192080D02*
X0347350Y0192080D01*
X0347350Y0193039D02*
X0342052Y0193039D01*
X0342052Y0193998D02*
X0347350Y0193998D01*
X0347350Y0194957D02*
X0342052Y0194957D01*
X0342052Y0195916D02*
X0347350Y0195916D01*
X0347350Y0196875D02*
X0342052Y0196875D01*
X0342052Y0197834D02*
X0347350Y0197834D01*
D23*
X0308087Y0173888D03*
X0308087Y0163258D03*
D24*
X0317657Y0188531D02*
X0317657Y0191725D01*
X0317657Y0188531D02*
X0314265Y0188531D01*
X0314265Y0191725D01*
X0317657Y0191725D01*
X0317657Y0189243D02*
X0314265Y0189243D01*
X0314265Y0189955D02*
X0317657Y0189955D01*
X0317657Y0190667D02*
X0314265Y0190667D01*
X0314265Y0191379D02*
X0317657Y0191379D01*
X0317657Y0204476D02*
X0317657Y0207670D01*
X0317657Y0204476D02*
X0314265Y0204476D01*
X0314265Y0207670D01*
X0317657Y0207670D01*
X0317657Y0205188D02*
X0314265Y0205188D01*
X0314265Y0205900D02*
X0317657Y0205900D01*
X0317657Y0206612D02*
X0314265Y0206612D01*
X0314265Y0207324D02*
X0317657Y0207324D01*
D25*
X0306906Y0205974D03*
X0301394Y0205974D03*
M02*
