%
M48
M72
T01C0.01378
T02C0.01772
T03C0.02953
T04C0.03150
T05C0.04331
T06C0.04724
T07C0.12598
%
T01
X103362Y93770
X111236Y91801
X111437Y96948
X122260Y105581
X107693Y114636
X104515Y115423
X101564Y113744
X92339Y105581
X75016Y106762
X62417Y102037
X56906Y100069
X113625Y119360
X136039Y126447
X136827Y105581
X161630Y83140
X119531Y66211
X114753Y66211
X153362Y47707
X223441Y97707
X231709Y96919
X229346Y105581
X231709Y112667
X223441Y119360
X214386Y105581
X244307Y105581
X258874Y103612
X268717Y107970
X300606Y85108
X311236Y83140
X275803Y61486
X284465Y52852
X284465Y48074
X309268Y47707
X260055Y57549
X266748Y81538
X306118Y121329
X347457Y125266
X367142Y109518
X386039Y118573
X388795Y109518
X390764Y105581
X386039Y96919
X415567Y104793
X366354Y67392
X308087Y158730
X403756Y228809
X174622Y114636
T02
X282496Y148888
X325803Y87864
T03
X404701Y139793
X384701Y139793
X384701Y169793
X404701Y169793
X404701Y192943
X384701Y192943
X384701Y222943
X404701Y222943
X65803Y222943
X85803Y222943
X126827Y222943
X146827Y222943
X187850Y222943
X207850Y222943
X248874Y222943
X268874Y222943
X248874Y192943
X268874Y192943
X268874Y169793
X248874Y169793
X207850Y169793
X187850Y169793
X187850Y192943
X207850Y192943
X146827Y192943
X126827Y192943
X126827Y169793
X146827Y169793
X146827Y139793
X126827Y139793
X85803Y139793
X65803Y139793
X65803Y169793
X85803Y169793
X85803Y192943
X65803Y192943
X187850Y139793
X207850Y139793
X248874Y139793
X268874Y139793
T04
X327772Y229990
X308874Y241407
X327772Y252825
X327772Y252825
X375016Y247313
X414386Y247313
X394701Y266998
X258874Y266998
X197850Y266998
X136827Y266998
X75803Y266998
X56118Y247313
X95488Y247313
X117142Y247313
X156512Y247313
X178165Y247313
X217535Y247313
X239189Y247313
X278559Y247313
T05
X408480Y64242
X398638Y64242
X388795Y64242
X388795Y74085
X398638Y74085
X408480Y74085
X359425Y52431
X349425Y52431
X319898Y64242
X310055Y64242
X300213Y64242
X300213Y74085
X310055Y74085
X319898Y74085
X241157Y74085
X231315Y74085
X221472Y74085
X221472Y64242
X231315Y64242
X241157Y64242
X162417Y64242
X152575Y64242
X142732Y64242
X142732Y74085
X152575Y74085
X162417Y74085
X83677Y74085
X73835Y74085
X63992Y74085
X63992Y64242
X73835Y64242
X83677Y64242
T06
X394701Y247313
X375016Y266998
X375016Y276841
X414386Y276841
X414386Y266998
X278559Y266998
X278559Y276841
X239189Y276841
X239189Y266998
X217535Y266998
X217535Y276841
X178165Y276841
X178165Y266998
X156512Y266998
X156512Y276841
X117142Y276841
X117142Y266998
X95488Y266998
X95488Y276841
X56118Y276841
X56118Y266998
X75803Y247313
X136827Y247313
X197850Y247313
X258874Y247313
T07
X24622Y54400
X24622Y270935
X445882Y270935
X445882Y54400
M30
