%
M48
M72
T01C0.01378
T02C0.01772
T03C0.02953
T04C0.03150
T05C0.03937
T06C0.04331
T07C0.04724
T08C0.12598
%
T01
X103362Y93770
X92339Y105581
X101564Y113744
X104515Y115423
X107693Y114636
X113625Y119360
X136039Y126447
X136827Y105581
X122260Y105581
X125216Y81200
X123047Y78022
X125803Y65423
X128559Y54793
X121079Y54400
X160449Y92589
X174622Y114636
X214386Y105581
X223441Y97707
X229346Y105581
X231709Y112667
X223441Y119360
X244307Y105581
X233677Y94951
X215567Y78022
X215567Y72116
X195882Y66604
X260832Y87854
X264780Y83927
X268717Y79990
X275803Y69360
X281709Y61486
X336827Y83140
X349425Y93770
X356118Y92982
X355331Y97707
X363205Y101644
X364386Y95738
X378953Y90620
X392732Y86683
X406512Y95738
X406512Y101644
X406512Y107549
X390764Y107549
X390764Y101644
X380134Y102825
X409661Y87077
X417535Y87077
X374228Y69360
X358480Y67392
X353362Y62274
X295488Y106762
X276984Y102825
X258874Y103612
X270685Y113875
X306118Y121329
X308087Y158730
X330921Y163848
X344701Y163848
X299425Y175659
X295488Y190226
X297457Y203219
X403756Y228809
X415567Y185502
X421079Y134715
X75016Y106762
X62417Y102037
X52969Y100069
T02
X282496Y148888
X325803Y70148
T03
X268874Y139793
X248874Y139793
X207850Y139793
X187850Y139793
X146827Y139793
X126827Y139793
X85803Y139793
X65803Y139793
X65803Y169793
X85803Y169793
X85803Y192943
X65803Y192943
X65803Y222943
X85803Y222943
X248874Y222943
X268874Y222943
X268874Y192943
X248874Y192943
X248874Y169793
X268874Y169793
X207850Y169793
X187850Y169793
X187850Y192943
X207850Y192943
X207850Y222943
X187850Y222943
X146827Y222943
X126827Y222943
X126827Y192943
X146827Y192943
X146827Y169793
X126827Y169793
T04
X327772Y229990
X308874Y241407
X327772Y252825
X327772Y252825
X375016Y247313
X414386Y247313
X394701Y266998
X258874Y266998
X197850Y266998
X136827Y266998
X75803Y266998
X56118Y247313
X95488Y247313
X117142Y247313
X156512Y247313
X178165Y247313
X217535Y247313
X239189Y247313
X278559Y247313
T05
X168323Y105581
T06
X408480Y64242
X398638Y64242
X388795Y64242
X388795Y74085
X398638Y74085
X408480Y74085
X359425Y52431
X349425Y52431
X319898Y64242
X310055Y64242
X300213Y64242
X300213Y74085
X310055Y74085
X319898Y74085
X241157Y74085
X231315Y74085
X221472Y74085
X221472Y64242
X231315Y64242
X241157Y64242
X162417Y64242
X152575Y64242
X142732Y64242
X142732Y74085
X152575Y74085
X162417Y74085
X83677Y74085
X73835Y74085
X63992Y74085
X63992Y64242
X73835Y64242
X83677Y64242
T07
X394701Y247313
X375016Y266998
X375016Y276841
X414386Y276841
X414386Y266998
X278559Y266998
X278559Y276841
X239189Y276841
X239189Y266998
X217535Y266998
X217535Y276841
X178165Y276841
X178165Y266998
X156512Y266998
X156512Y276841
X117142Y276841
X117142Y266998
X95488Y266998
X95488Y276841
X56118Y276841
X56118Y266998
X75803Y247313
X136827Y247313
X197850Y247313
X258874Y247313
T08
X24622Y54400
X24622Y270935
X445882Y270935
X445882Y54400
M30
